<?xml version="1.0" encoding="utf-8"?>
<!-- Generator: Adobe Illustrator 16.0.0, SVG Export Plug-In . SVG Version: 6.00 Build 0)  -->
<!DOCTYPE svg PUBLIC "-//W3C//DTD SVG 1.1//EN" "http://www.w3.org/Graphics/SVG/1.1/DTD/svg11.dtd">
<svg version="1.1" id="图层_1" xmlns="http://www.w3.org/2000/svg" xmlns:xlink="http://www.w3.org/1999/xlink" x="0px" y="0px"
	 width="100px" height="100px" viewBox="0 0 100 100" enable-background="new 0 0 100 100" xml:space="preserve">
<path fill="#426484" d="M26.42,71.471c1.9-1.104-1.637-3.921-0.784-5c0.322-0.408,0.614-0.388,1.271-0.289
	c1.156,0.174,3.086,0.734,3.129-1.322c0.03-1.422-1.616-1.332-2.749-1.463c-3.15-0.369-1.059-1.951-0.653-3.051
	c0.312-0.844,0.561-1.746-0.269-2.199c-0.777-0.422-1.59,0.082-2.093,0.854c-0.571,0.878-0.959,2.791-1.785,2.774
	c-0.485-0.01-0.872-1.075-1.147-1.486c-0.71-1.061-1.249-2.874-2.828-2.057c-1.262,0.656-0.219,2.021,0.245,3.052
	c1.016,2.26-0.793,1.934-2.009,2.163c-0.928,0.174-2.216,0.144-2.07,1.498c0.14,1.285,1.395,1.154,2.374,1.221
	c0.8,0.057,1.844-0.354,2.25,0.17c0.96,1.239-3.042,3.975-0.53,5.309c1.906,1.01,2.853-3.561,3.579-3.582
	C23.512,68.029,23.992,72.884,26.42,71.471z M73.643,22.853c-2.883-0.234-4.769-1.246-6.761-3.238
	c-4.282-4.285-9.719-6.243-16.032-6.507c-5.947,0.228-11.602,1.97-15.998,6.515c-1.945,2.01-3.857,3.024-6.768,3.235
	c-9.375,0.681-16.097,9.232-14.86,18.367c1.249,9.23,9.792,15.643,19.018,14.136c2.063-0.338,3.729-0.271,5.617,0.943
	c8.536,5.488,17.258,5.383,25.829,0.063c1.858-1.155,3.479-1.368,5.588-1.016c9.367,1.569,17.617-4.635,18.931-14.038
	C89.51,31.938,83.133,23.625,73.643,22.853z M80.624,46.588c-3.339,3.822-7.688,5.299-12.582,3.276
	c-2.104-0.871-3.384-0.818-5.233,0.762c-7.324,6.267-16.021,6.353-23.661,0.405c-1.794-1.396-3.087-2.282-5.621-1.173
	c-4.824,2.111-9.168,0.49-12.531-3.352c-3.274-3.742-3.732-8.062-1.594-12.542c2.022-4.237,6.472-6.588,11.815-6.261
	c2.596,0.235,3.493-0.299,5.009-2.195c7.915-9.902,21.183-9.9,29.155,0.055c1.578,1.971,2.911,2.509,5.36,2.219
	c5.12-0.605,9.114,1.545,11.421,6.233C84.354,38.469,83.865,42.877,80.624,46.588z M53.88,82.236
	c-3.149-0.369-1.06-1.951-0.653-3.051c0.313-0.845,0.562-1.746-0.27-2.199c-0.777-0.422-1.59,0.082-2.094,0.854
	c-0.57,0.878-0.958,2.791-1.784,2.774c-0.485-0.011-0.873-1.075-1.147-1.486c-0.71-1.062-1.249-2.874-2.827-2.056
	c-1.263,0.654-0.219,2.02,0.244,3.051c1.017,2.26-0.792,1.936-2.008,2.163c-0.928,0.174-2.216,0.146-2.07,1.498
	c0.14,1.284,1.395,1.153,2.374,1.221c0.8,0.058,1.845-0.354,2.25,0.17c0.96,1.239-3.041,3.976-0.53,5.31
	c1.906,1.011,2.853-3.562,3.579-3.582c1.161-0.032,1.64,4.822,4.07,3.408c1.9-1.104-1.638-3.92-0.785-5
	c0.324-0.408,0.615-0.389,1.271-0.289c1.154,0.174,3.086,0.733,3.129-1.322C56.658,82.277,55.014,82.368,53.88,82.236z
	 M83.537,63.396c-3.15-0.369-1.061-1.951-0.654-3.051c0.313-0.845,0.561-1.746-0.269-2.199c-0.777-0.422-1.591,0.082-2.093,0.854
	c-0.571,0.878-0.959,2.791-1.785,2.773c-0.485-0.01-0.873-1.074-1.147-1.485c-0.71-1.062-1.249-2.874-2.827-2.058
	c-1.263,0.656-0.219,2.021,0.244,3.053c1.016,2.26-0.792,1.934-2.008,2.162c-0.928,0.175-2.216,0.145-2.07,1.498
	c0.139,1.285,1.396,1.154,2.373,1.222c0.801,0.058,1.846-0.354,2.251,0.17c0.96,1.239-3.042,3.976-0.53,5.31
	c1.906,1.01,2.854-3.562,3.58-3.582c1.16-0.033,1.641,4.82,4.068,3.408c1.9-1.104-1.637-3.922-0.783-5
	c0.322-0.408,0.613-0.389,1.271-0.289c1.155,0.174,3.086,0.733,3.129-1.322C86.314,63.438,84.67,63.527,83.537,63.396z
	 M43.688,71.764c1.135-0.66-0.976-2.34-0.467-2.984c0.192-0.243,0.366-0.231,0.76-0.174c0.69,0.104,1.842,0.438,1.868-0.789
	c0.018-0.849-0.965-0.795-1.641-0.873c-1.88-0.221-0.632-1.166-0.39-1.82c0.186-0.503,0.335-1.042-0.161-1.313
	c-0.464-0.252-0.949,0.049-1.25,0.512c-0.34,0.523-0.572,1.666-1.065,1.654c-0.29-0.004-0.521-0.643-0.685-0.888
	c-0.424-0.633-0.746-1.716-1.688-1.228c-0.754,0.39-0.131,1.205,0.146,1.82c0.606,1.35-0.473,1.153-1.2,1.291
	c-0.554,0.104-1.323,0.086-1.236,0.896c0.083,0.771,0.833,0.688,1.417,0.729c0.478,0.033,1.101-0.209,1.343,0.103
	c0.573,0.739-1.816,2.372-0.316,3.169c1.137,0.604,1.703-2.125,2.136-2.139C41.953,69.708,42.239,72.605,43.688,71.764z
	 M62.07,68.605c0.688,0.104,1.842,0.438,1.867-0.789c0.018-0.85-0.965-0.795-1.642-0.873c-1.881-0.221-0.633-1.166-0.392-1.821
	c0.187-0.503,0.336-1.042-0.159-1.313c-0.464-0.252-0.949,0.049-1.25,0.512c-0.341,0.523-0.572,1.666-1.063,1.654
	c-0.291-0.004-0.521-0.642-0.687-0.887c-0.425-0.633-0.747-1.716-1.688-1.227c-0.754,0.389-0.132,1.205,0.146,1.82
	c0.605,1.348-0.475,1.152-1.2,1.291c-0.553,0.104-1.321,0.086-1.233,0.895c0.082,0.77,0.832,0.689,1.416,0.729
	c0.479,0.034,1.102-0.209,1.344,0.104c0.574,0.738-1.814,2.371-0.315,3.169c1.138,0.604,1.703-2.125,2.136-2.14
	c0.694-0.021,0.98,2.877,2.43,2.035c1.136-0.66-0.978-2.34-0.469-2.984C61.504,68.535,61.678,68.547,62.07,68.605z M70.922,78.721
	c-1.881-0.22-0.633-1.164-0.391-1.82c0.186-0.504,0.335-1.043-0.16-1.313c-0.464-0.252-0.949,0.051-1.25,0.512
	c-0.34,0.523-0.572,1.666-1.064,1.654c-0.291-0.005-0.521-0.643-0.686-0.887c-0.424-0.635-0.747-1.717-1.688-1.229
	c-0.754,0.389-0.133,1.205,0.146,1.82c0.606,1.35-0.474,1.154-1.2,1.291c-0.553,0.105-1.322,0.087-1.234,0.895
	c0.082,0.771,0.832,0.689,1.416,0.729c0.479,0.034,1.103-0.21,1.344,0.103c0.574,0.738-1.813,2.373-0.314,3.168
	c1.139,0.604,1.703-2.125,2.137-2.138c0.693-0.021,0.979,2.877,2.43,2.034c1.135-0.66-0.979-2.339-0.469-2.984
	c0.192-0.244,0.367-0.231,0.76-0.173c0.689,0.104,1.842,0.438,1.867-0.79C72.58,78.746,71.598,78.799,70.922,78.721z M31.798,78.721
	c-1.88-0.22-0.632-1.164-0.39-1.82c0.186-0.504,0.335-1.043-0.161-1.313c-0.464-0.252-0.949,0.051-1.25,0.512
	c-0.34,0.523-0.572,1.666-1.065,1.654c-0.29-0.005-0.521-0.643-0.685-0.887c-0.424-0.635-0.746-1.717-1.688-1.229
	c-0.754,0.389-0.131,1.205,0.146,1.82c0.606,1.35-0.473,1.154-1.2,1.291c-0.554,0.105-1.323,0.087-1.236,0.895
	c0.083,0.771,0.833,0.689,1.417,0.729c0.478,0.034,1.101-0.21,1.343,0.103c0.573,0.738-1.816,2.373-0.316,3.168
	c1.137,0.604,1.703-2.125,2.136-2.138c0.694-0.021,0.98,2.877,2.429,2.034c1.135-0.66-0.976-2.339-0.467-2.984
	c0.192-0.244,0.366-0.231,0.76-0.173c0.69,0.104,1.842,0.438,1.868-0.79C33.457,78.746,32.474,78.799,31.798,78.721z"/>
</svg>
