<?xml version="1.0" encoding="utf-8"?>
<!-- Generator: Adobe Illustrator 16.0.0, SVG Export Plug-In . SVG Version: 6.00 Build 0)  -->
<!DOCTYPE svg PUBLIC "-//W3C//DTD SVG 1.1//EN" "http://www.w3.org/Graphics/SVG/1.1/DTD/svg11.dtd">
<svg version="1.1" id="图层_1" xmlns="http://www.w3.org/2000/svg" xmlns:xlink="http://www.w3.org/1999/xlink" x="0px" y="0px"
	 width="100px" height="100px" viewBox="0 0 100 100" enable-background="new 0 0 100 100" xml:space="preserve">
<path fill="#406283" d="M78.637,62.412c2.247,2.611,3.658,5.152,4.557,7.986c0.67,2.123,0.15,3.963-1.641,5.236
	c-1.769,1.26-3.748,1.211-5.56,0.041c-1.888-1.219-2.444-3.127-1.841-5.188C74.992,67.634,76.547,65.116,78.637,62.412z
	 M40.869,64.864c2.17,2.553,3.432,4.999,4.458,7.606c0.942,2.396,0.092,4.189-1.772,5.596c-1.789,1.349-3.718,1.248-5.486-0.071
	c-1.931-1.443-2.573-3.388-1.634-5.662C37.494,69.766,38.702,67.268,40.869,64.864z M69.673,73.95
	c1.548,2.981,3.025,5.373,4.048,7.944c0.866,2.18,0.215,4.338-1.881,5.59c-1.797,1.072-3.822,1.096-5.563-0.243
	c-1.76-1.354-2.194-3.236-1.463-5.306C65.802,79.145,67.087,76.509,69.673,73.95z M50.688,75.171
	c1.518,2.831,2.902,5.099,3.973,7.506c0.971,2.187,0.506,4.321-1.461,5.804c-1.766,1.332-3.796,1.324-5.593,0.084
	c-2.028-1.4-2.511-3.473-1.64-5.739C46.973,80.203,48.154,77.654,50.688,75.171z M59.52,64.374c2.434,3.11,3.976,5.625,4.778,8.519
	c0.587,2.114-0.011,3.955-1.889,5.228c-1.888,1.278-3.789,1.131-5.532-0.253c-1.729-1.372-2.469-3.256-1.574-5.309
	C56.42,69.996,57.852,67.57,59.52,64.374z M31.148,74.023c2.193,2.164,3.295,4.522,4.353,6.875c1.018,2.265,1.123,4.563-1.065,6.258
	c-1.88,1.453-4.015,1.509-5.93,0.07c-2.177-1.636-2.32-3.936-1.248-6.205C28.369,78.674,29.775,76.465,31.148,74.023z
	 M72.216,27.188c-2.175-0.163-3.622-0.834-5.112-2.381c-4.472-4.645-10.027-6.98-16.514-6.985
	c-6.903-0.025-11.846,1.956-17.002,7.022c-1.336,1.313-2.541,2.185-4.624,2.332c-10.7,0.751-17.054,8.286-16.047,18.674
	c0.877,9.044,9.113,15.267,18.968,14.036c2.321-0.29,4.024,0.125,5.993,1.322c8.265,5.024,16.708,5.015,24.954-0.039
	c1.963-1.203,3.637-1.591,5.945-1.288c9.949,1.305,18.156-5.044,19.146-14.51C88.908,35.945,82.105,27.931,72.216,27.188z
	 M70.816,55.154c-4.825-3.567-8.676,0.691-13.199,3.014c-6.77,3.475-13.291,1.977-19.036-2.652
	c-1.847-1.488-3.146-2.099-5.604-1.119c-4.896,1.949-9.697,0.351-12.859-3.795c-2.89-3.788-3.141-7.986-1.09-12.194
	c2.204-4.522,6.879-7.035,11.972-6.137c2.177,0.383,3.1-0.097,4.417-1.771c8.249-10.487,21.531-10.53,29.709-0.048
	c1.517,1.945,2.745,2.016,4.937,1.734c6.648-0.851,12.56,4.309,12.916,10.879C83.328,49.476,78.139,55.025,70.816,55.154z
	 M20.596,63.602c2.17,2.553,3.432,5,4.458,7.607c0.942,2.395,0.092,4.189-1.772,5.596c-1.789,1.348-3.718,1.248-5.486-0.072
	c-1.931-1.442-2.573-3.387-1.634-5.662C17.221,68.503,18.429,66.004,20.596,63.602z"/>
</svg>
