<?xml version="1.0" encoding="utf-8"?>
<!-- Generator: Adobe Illustrator 16.0.0, SVG Export Plug-In . SVG Version: 6.00 Build 0)  -->
<!DOCTYPE svg PUBLIC "-//W3C//DTD SVG 1.1//EN" "http://www.w3.org/Graphics/SVG/1.1/DTD/svg11.dtd">
<svg version="1.1" id="图层_1" xmlns="http://www.w3.org/2000/svg" xmlns:xlink="http://www.w3.org/1999/xlink" x="0px" y="0px"
	 width="100px" height="100px" viewBox="0 0 100 100" enable-background="new 0 0 100 100" xml:space="preserve">
<path fill="#3D6081" d="M50.131,73.837c-6.168-0.021-11.398-1.985-15.097-6.271c-2.789-3.229-5.792-3.944-9.618-3.73
	c-2.989,0.167-5.996,0.023-8.995-0.018c-1.395-0.02-2.889-0.286-2.88-2.004c0.01-1.771,1.627-1.899,2.951-1.941
	c2.997-0.096,6.001,0.006,8.994-0.141c1.512-0.073,3.398,0.14,3.592-2.211c0.266-3.209-1.183-3.754-3.758-3.642
	c-1.329,0.06-2.666-0.006-3.998-0.049c-1.404-0.045-2.865-0.299-2.822-2.06c0.044-1.806,1.313-1.9,2.624-2.054
	c3.5-0.406,7.844,1.345,7.665-3.279c-0.102-2.627-4.315-2.69-7.999-2.513c-1.293,0.062-2.654-0.04-3.985-0.08
	c-1.511-0.046-3.357-0.025-3.274-2.097c0.084-2.071,2.041-1.795,3.474-1.913c1.159-0.094,2.335-0.102,3.497-0.029
	c6.231,0.39,11.309-0.623,16.583-5.346c11.334-10.148,29.987-4.095,34.271,10.59c1.172,4.018,2.937,5.074,6.563,4.765
	c1.654-0.142,3.331-0.007,4.995,0.01c1.864,0.019,4.342-0.472,4.43,1.973c0.095,2.596-2.534,1.977-4.235,2.045
	c-2.494,0.102-4.998,0.096-7.496,0.039c-2.209-0.05-3.377,0.948-3.752,3.118c-0.44,2.558,1.32,2.827,3.013,2.867
	c1.565,0.036,2.603,0.332,2.502,2.131c-0.092,1.633-1.938,1.976-3.271,1.821c-3.5-0.4-5.746,1.195-8.117,3.703
	C61.691,72.064,56.119,74.18,50.131,73.837z M38.209,39.822c4.357,0,7.445-0.063,10.529,0.026c1.596,0.046,3.792-0.114,3.653,2.243
	c-0.115,1.931-2.099,1.742-3.563,1.761c-3.984,0.051-7.969,0.053-11.954,0.074c-2.663,0.015-3.439,1.935-3.462,3.992
	c-0.024,2.209,2.043,1.799,3.381,1.81c9.132,0.068,18.267-0.024,27.397,0.066c3.509,0.035,3.877-1.609,2.815-4.367
	C62.561,33.872,47.184,30.021,38.209,39.822z M50.873,53.881c-4.654,0-9.309-0.042-13.961,0.026
	c-1.383,0.021-3.382-0.443-3.479,1.739c-0.083,1.851,0.497,3.928,2.875,3.951c9.468,0.1,18.939,0.092,28.409-0.013
	c2.088-0.022,2.582-1.808,2.704-3.573c0.166-2.406-1.673-2.087-3.085-2.104C59.85,53.85,55.361,53.886,50.873,53.881z
	 M62.171,63.928c-7.657,0-14.046,0.194-20.871,0.018c-2.147-0.055-2.487-0.039-1.862,0.898c0.299,0.448,0.771,1.174,1.192,1.586
	C45.434,71.127,56.422,70.299,62.171,63.928z"/>
</svg>
