<?xml version="1.0" encoding="utf-8"?>
<!-- Generator: Adobe Illustrator 16.0.0, SVG Export Plug-In . SVG Version: 6.00 Build 0)  -->
<!DOCTYPE svg PUBLIC "-//W3C//DTD SVG 1.1//EN" "http://www.w3.org/Graphics/SVG/1.1/DTD/svg11.dtd">
<svg version="1.1" id="图层_1" xmlns="http://www.w3.org/2000/svg" xmlns:xlink="http://www.w3.org/1999/xlink" x="0px" y="0px"
	 width="100px" height="100px" viewBox="0 0 100 100" enable-background="new 0 0 100 100" xml:space="preserve">
<path fill="#3D6081" d="M69.052,59.921c-3.302-0.796-4.323,0.404-6.76,1.829c-7.61,4.451-15.865,5.406-23.064,0.264
	c-2.644-1.889-4.353-2.306-8.061-1.806c-9.409,1.269-17.353-5.644-17.94-14.454c-0.659-9.875,5.432-16.849,15.436-17.464
	c1.981-0.123,3.304-0.813,4.711-2.208c9.897-9.807,23.313-9.911,33.339-0.342c1.469,1.401,2.824,2.443,5.088,2.576
	c10.059,0.59,16.098,7.631,15.318,17.521C86.413,54.792,79.021,60.691,69.052,59.921z M83.268,44.16
	c0.028-6.892-6.246-12.917-13.08-11.893c-2.726,0.408-3.785-0.532-5.275-2.296c-8.211-9.715-21.289-9.705-29.398,0.023
	c-1.5,1.8-2.658,2.66-5.33,2.3c-5.026-0.676-9.021,1.705-11.543,6.185c-2.519,4.474-2.055,9.58,1.426,13.417
	c3.377,3.725,7.565,5.469,12.556,3.602c2.215-0.829,3.741-0.715,5.739,0.904c7.562,6.127,16.162,6.143,23.722,0.05
	c1.966-1.584,3.415-1.765,5.704-1.005C75.49,57.998,83.232,52.248,83.268,44.16z M28.392,68.891c2.091,2.2,3.101,4.475,4.022,6.77
	c0.769,1.914,0.18,3.605-1.406,4.869c-1.589,1.264-3.254,1.412-5.024,0.203c-1.797-1.229-2.141-2.996-1.629-4.823
	C25.064,73.372,26.301,71.043,28.392,68.891z M63.258,77.536c-0.023,2.233,0.534,6.037-1.906,6.129
	c-2.267,0.085-1.974-4.09-1.971-6.129c0.003-2.197-0.381-5.918,2.018-5.918C63.708,71.618,63.282,75.281,63.258,77.536z
	 M41.466,77.536c-0.024,2.233,0.534,6.037-1.907,6.129c-2.266,0.085-1.973-4.09-1.97-6.129c0.003-2.197-0.381-5.918,2.018-5.918
	C41.917,71.618,41.491,75.281,41.466,77.536z M19.083,69.846c-0.024,2.233,0.534,6.037-1.907,6.129
	c-2.266,0.086-1.973-4.09-1.97-6.129c0.003-2.197-0.381-5.918,2.018-5.918C19.534,63.928,19.108,67.591,19.083,69.846z
	 M84.925,69.668c-0.024,2.232,0.534,6.037-1.907,6.129c-2.266,0.085-1.973-4.09-1.97-6.129c0.003-2.197-0.381-5.918,2.019-5.918
	C85.375,63.75,84.949,67.413,84.925,69.668z M50.326,75.977c2.092,2.2,3.101,4.475,4.021,6.77c0.769,1.914,0.18,3.605-1.406,4.869
	c-1.588,1.264-3.253,1.412-5.023,0.203c-1.797-1.229-2.141-2.996-1.629-4.823C46.999,80.458,48.236,78.129,50.326,75.977z
	 M71.936,68.891c2.092,2.2,3.102,4.475,4.022,6.77c0.769,1.914,0.181,3.605-1.406,4.869c-1.589,1.264-3.254,1.412-5.024,0.203
	c-1.797-1.229-2.141-2.996-1.629-4.823C68.607,73.372,69.846,71.043,71.936,68.891z"/>
</svg>
