<?xml version="1.0" encoding="utf-8"?>
<!-- Generator: Adobe Illustrator 16.0.0, SVG Export Plug-In . SVG Version: 6.00 Build 0)  -->
<!DOCTYPE svg PUBLIC "-//W3C//DTD SVG 1.1//EN" "http://www.w3.org/Graphics/SVG/1.1/DTD/svg11.dtd">
<svg version="1.1" id="图层_1" xmlns="http://www.w3.org/2000/svg" xmlns:xlink="http://www.w3.org/1999/xlink" x="0px" y="0px"
	 width="100px" height="100px" viewBox="0 0 100 100" enable-background="new 0 0 100 100" xml:space="preserve">
<path fill="#3D6081" d="M81.618,80.32c-5.17,0.14-4.044-3.506-4.05-6.45c-0.022-10.495-0.19-20.996,0.06-31.487
	c0.149-6.261-1.187-12.618,1.06-18.803c0.543-1.492-0.375-2.845-1.795-3.763c-1.557-1.008-2.979-0.492-4.138,0.467
	c-1.226,1.013-1.659,2.532-0.896,4.064c2.207,4.427,0.711,9.036,1.104,14.032c-1.949-1.521-3.549-2.621-4.951-3.932
	c-0.547-0.513-0.646-1.502-0.957-2.27c-2.55-6.272-3.979-7.055-10.604-5.973c-10.011,1.635-20.019,3.285-30.044,4.829
	c-6.72,1.036-8.491,2.735-8.941,9.577c-0.14,2.125,0.187,4.303,0.494,6.429c0.519,3.595,2.003,5.797,6.255,6.356
	c11.206,1.475,22.354,3.437,33.481,5.449c4.914,0.889,7.877-1.156,9.078-5.529c0.953-3.467,3.072-5.325,6.215-7.071
	c0,10.329-0.068,20.157,0.047,29.983c0.029,2.52-0.207,4.147-3.342,3.861c-1.478-0.135-2.545,0.932-2.373,2.537
	c0.146,1.378,1.269,1.871,2.547,1.876c3.662,0.017,7.328,0.038,10.99-0.039c1.047-0.021,1.896-0.585,2.055-1.784
	C83.061,81.559,82.6,80.295,81.618,80.32z M30.734,50.836c-9.085-0.388-12.512-5.525-9.44-13.396
	c0.832-2.131,6.302-4.308,8.604-3.53c1.483,0.502,0.953,1.469,0.709,2.357C29.306,41.002,29.743,45.734,30.734,50.836z
	 M41.623,52.477c-7.645-0.152-8.956-1.809-8.788-10.75c0.144-7.693,1.758-9.466,8.981-9.417
	C39.417,39.022,39.288,45.743,41.623,52.477z M58.25,54.943c-11.787,0.002-13.751-1.449-14.539-10.204
	C42.75,34.07,45.077,31.48,58.284,29.22C55.167,37.817,54.706,46.26,58.25,54.943z M63.715,52.004
	c-0.287,0.825-0.663,2.16-1.918,1.838c-0.615-0.158-1.191-1.09-1.479-1.796c-1.262-3.117-1.713-6.383-1.452-9.66
	c-0.216-3.436,0.196-6.705,1.524-9.809c0.303-0.708,0.598-1.636,1.627-1.636c1.03,0,1.344,0.943,1.604,1.645
	C66.01,39.036,65.963,45.535,63.715,52.004z M68.541,44.741c-0.111-1.726-0.209-3.25-0.354-5.498
	C72.124,41.192,72.791,42.822,68.541,44.741z"/>
</svg>
