<?xml version="1.0" encoding="utf-8"?>
<!-- Generator: Adobe Illustrator 16.0.0, SVG Export Plug-In . SVG Version: 6.00 Build 0)  -->
<!DOCTYPE svg PUBLIC "-//W3C//DTD SVG 1.1//EN" "http://www.w3.org/Graphics/SVG/1.1/DTD/svg11.dtd">
<svg version="1.1" id="图层_1" xmlns="http://www.w3.org/2000/svg" xmlns:xlink="http://www.w3.org/1999/xlink" x="0px" y="0px"
	 width="100px" height="100px" viewBox="0 0 100 100" enable-background="new 0 0 100 100" xml:space="preserve">
<path fill="#3C5F81" d="M74.127,23.684c-3.396-0.181-2.951,0.382-5.538-2.435c-4.496-4.896-10.339-7.047-17.659-7.14
	c-5.682,0.274-11.356,2.304-15.78,7.063c-1.877,2.021-2.119,2.348-5.541,2.523c-9.371,0.48-16.343,8.716-15.437,17.867
	c0.933,9.42,9.563,16.365,18.922,14.81c3.495-0.578,3.126-0.646,6.386,1.31c8.109,4.854,16.444,4.92,24.534,0.057
	c4.016-2.414,2.582-1.971,6.873-1.312c9.303,1.431,17.68-5.631,18.541-15.238C90.223,32.316,83.21,24.167,74.127,23.684z
	 M81.523,47.612c-3.396,3.763-7.746,5.308-12.616,3.117c-2.207-0.994-3.416-0.524-5.169,0.939
	c-7.596,6.354-16.263,6.316-24.052-0.074c-1.593-1.307-2.653-1.879-4.71-0.941c-5.077,2.314-9.462,0.681-13.005-3.262
	c-3.369-3.748-3.749-8.166-1.511-12.534c2.339-4.565,6.352-6.619,11.668-6.287c2.748,0.224,4.829-1.745,5.19-2.204
	c7.551-9.607,20.972-9.678,28.868-0.107c1.676,2.031,3.012,2.803,5.703,2.436c5.176-0.707,9.069,1.747,11.328,6.387
	C85.385,39.534,84.832,43.947,81.523,47.612z M25.964,71.621c0.116,2.363-1.034,4.061-3.064,5.027
	c-2.129,1.012-4.148,0.759-5.909-0.73c-1.646-1.395-2.244-3.378-1.706-5.383c0.834-3.105,2.684-5.701,4.325-8.395
	c0.443-0.729,0.986-1.233,1.627-0.213C23.192,65.046,25.786,68.021,25.964,71.621z M56.712,83.146
	c0.118,2.363-1.034,4.061-3.063,5.026c-2.129,1.015-4.147,0.759-5.908-0.729c-1.645-1.394-2.244-3.377-1.706-5.383
	c0.833-3.105,2.684-5.701,4.325-8.396c0.443-0.728,0.987-1.231,1.627-0.212C53.939,76.57,56.534,79.547,56.712,83.146z
	 M88.259,72.109c0.118,2.363-1.03,4.061-3.063,5.026c-2.127,1.013-4.146,0.759-5.908-0.729c-1.645-1.395-2.244-3.379-1.705-5.383
	c0.832-3.106,2.686-5.701,4.325-8.396c0.442-0.728,0.985-1.233,1.628-0.212C85.486,65.534,88.083,68.511,88.259,72.109z
	 M42.238,72.107c0.116,2.365-1.034,4.062-3.063,5.027c-2.13,1.012-4.149,0.76-5.909-0.73c-1.646-1.393-2.244-3.377-1.706-5.383
	c0.834-3.104,2.684-5.701,4.325-8.395c0.443-0.727,0.986-1.232,1.628-0.211C39.466,65.534,42.061,68.511,42.238,72.107z
	 M71.797,72.109c0.116,2.363-1.033,4.061-3.063,5.026c-2.131,1.013-4.149,0.759-5.909-0.729c-1.646-1.395-2.244-3.379-1.706-5.383
	c0.834-3.106,2.686-5.701,4.324-8.396c0.443-0.728,0.986-1.233,1.629-0.212C69.023,65.534,71.619,68.511,71.797,72.109z"/>
</svg>
