<?xml version="1.0" encoding="utf-8"?>
<!-- Generator: Adobe Illustrator 16.0.0, SVG Export Plug-In . SVG Version: 6.00 Build 0)  -->
<!DOCTYPE svg PUBLIC "-//W3C//DTD SVG 1.1//EN" "http://www.w3.org/Graphics/SVG/1.1/DTD/svg11.dtd">
<svg version="1.1" id="图层_1" xmlns="http://www.w3.org/2000/svg" xmlns:xlink="http://www.w3.org/1999/xlink" x="0px" y="0px"
	 width="100px" height="100px" viewBox="0 0 100 100" enable-background="new 0 0 100 100" xml:space="preserve">
<path fill="#416384" d="M50.428,74.275c5.835,6.002,5.908,7.193,1.792,12.154c-1.461,1.758-1.642,1.463-2.956,0.119
	C44.938,82.125,44.563,80.688,50.428,74.275z M80.498,71.624c-6.195-6.192-6.21-6.722-0.361-13.363
	C86.139,64.251,86.139,64.251,80.498,71.624z M65.473,65.316c5.701,6.728,5.701,6.728,0.23,13.418
	C59.488,72.855,59.48,72.413,65.473,65.316z M72.691,21.247c-3.698-0.359-2.555,0.38-5.164-2.194
	c-9.737-9.607-23.604-9.649-33.489-0.19c-2.758,2.638-1.908,2.119-5.119,2.392c-9.782,0.839-16.492,8.454-15.874,17.624
	c0.64,9.499,8.401,16,18.541,15.154c5.89-0.49,1.824-1.422,7.393,1.771c7.643,4.377,15.553,4.461,23.244,0.109
	c3.793-2.145,2.908-3.064,6.619-2.135c9.691,2.432,18.416-5.056,19.242-13.663C89.064,29.907,82.904,22.236,72.691,21.247z
	 M67.873,48.511c-2.293-0.79-3.465-0.414-5.21,0.97c-7.94,6.3-16.227,6.24-24.083-0.216c-1.664-1.367-2.787-1.543-4.796-0.818
	c-5.167,1.868-9.999,0.527-13.064-3.337c-3.075-3.875-3.634-8.128-1.341-12.601c2.311-4.507,6.812-6.798,12.552-5.92
	c1.914,0.293,2.583-0.398,3.614-1.628c9.238-11.022,21.152-10.989,30.344,0.178c1.348,1.637,2.396,1.52,4.194,1.258
	c7.172-1.043,13.239,4.39,13.168,11.523C83.172,45.894,75.715,51.213,67.873,48.511z M35.348,64.914
	c5.701,6.729,5.701,6.729,0.23,13.419C29.363,72.453,29.355,72.011,35.348,64.914z M18.595,58.205
	c5.701,6.729,5.701,6.729,0.23,13.419C12.61,65.744,12.603,65.302,18.595,58.205z"/>
</svg>
