<?xml version="1.0" encoding="utf-8"?>
<!-- Generator: Adobe Illustrator 16.0.0, SVG Export Plug-In . SVG Version: 6.00 Build 0)  -->
<!DOCTYPE svg PUBLIC "-//W3C//DTD SVG 1.1//EN" "http://www.w3.org/Graphics/SVG/1.1/DTD/svg11.dtd">
<svg version="1.1" id="图层_1" xmlns="http://www.w3.org/2000/svg" xmlns:xlink="http://www.w3.org/1999/xlink" x="0px" y="0px"
	 width="100px" height="100px" viewBox="0 0 100 100" enable-background="new 0 0 100 100" xml:space="preserve">
<path fill="#3C5F81" d="M49.475,77.99c-10.653,0-21.306-0.01-31.959,0.007c-2.411,0.004-5.191,0.086-5.02-3.208
	c0.146-2.809,2.726-2.813,4.985-2.811C39.12,72,60.758,71.993,82.396,71.989c2.393-0.001,5.129-0.146,4.97,3.247
	c-0.144,3.035-2.75,2.758-4.935,2.757C71.447,77.986,60.461,77.99,49.475,77.99z M54.891,39.563
	c-0.375,3.048-1.851,4.864-4.792,4.912c-2.886,0.047-4.811-1.521-4.881-4.457c-0.073-3.097,1.674-4.999,4.876-4.983
	C53.096,35.05,54.366,37.07,54.891,39.563z M30.263,50.092c-0.137,2.014-1.648,3.816-4.584,3.84
	c-2.886,0.021-4.657-1.635-4.795-4.583c-0.155-3.301,1.917-5.041,4.87-4.996C28.477,44.395,30.335,46.117,30.263,50.092z
	 M73.552,25.701c3.15,0.166,4.894,1.713,4.933,4.625c0.035,2.853-1.508,4.725-4.489,4.778c-3.127,0.056-5.022-1.607-4.953-4.814
	C69.105,27.378,70.877,25.876,73.552,25.701z M78.529,48.966c-0.153,2.845-1.502,4.851-4.442,4.952
	c-3.062,0.105-5.06-1.553-5.055-4.791c0.004-2.954,1.887-4.713,4.645-4.762C76.434,44.316,78.279,45.972,78.529,48.966z
	 M50.101,63.171c-3.037,0.079-4.751-1.538-4.883-4.405c-0.13-2.836,1.375-4.742,4.388-4.91c3.22-0.181,5.13,1.584,5.146,4.679
	C54.766,61.311,53.146,63.129,50.101,63.171z M25.382,25.601c2.855,0.184,4.798,1.507,4.927,4.479
	c0.123,2.832-1.269,4.802-4.254,5.001c-3.147,0.209-5.048-1.394-5.164-4.606C20.784,27.472,22.635,26.05,25.382,25.601z"/>
</svg>
