<?xml version="1.0" encoding="utf-8"?>
<!-- Generator: Adobe Illustrator 16.0.0, SVG Export Plug-In . SVG Version: 6.00 Build 0)  -->
<!DOCTYPE svg PUBLIC "-//W3C//DTD SVG 1.1//EN" "http://www.w3.org/Graphics/SVG/1.1/DTD/svg11.dtd">
<svg version="1.1" id="图层_1" xmlns="http://www.w3.org/2000/svg" xmlns:xlink="http://www.w3.org/1999/xlink" x="0px" y="0px"
	 width="100px" height="100px" viewBox="0 0 100 100" enable-background="new 0 0 100 100" xml:space="preserve">
<path fill="#4D6B8D" d="M26.088,76.313c-0.003-2.16-1.401-8.271,2.409-8.318c2.94-0.038,2.254,4.375,2.243,6.869
	c-0.012,2.533,1.165,7.809-2.224,7.824C25.438,82.702,26.092,78.998,26.088,76.313z M15.423,70.313
	c-0.119-2.539-0.611-6.869,2.402-6.85c2.925,0.02,2.288,4.143,2.283,6.475c-0.006,2.539,0.955,7.242-2.303,7.242
	C14.688,77.182,15.545,72.93,15.423,70.313z M74.686,75.018c0.181,2.629,0.92,6.982-2.049,6.976
	c-3.727-0.011-2.199-4.488-2.306-6.976c-0.103-2.43-0.963-7.031,1.931-6.975C76.124,68.117,74.507,72.438,74.686,75.018z
	 M41.749,78.5c0.122,1.932,0.688,6.234-1.921,6.234c-3.016,0-2.422-3.504-2.355-5.984c0.04-1.473-0.042-3.71-0.035-5.21
	c0.006-1.366,0.486-2.917,2.187-2.849c1.608,0.065,2.123,1.461,2.125,2.849C41.752,75.039,41.621,76.471,41.749,78.5z M59.209,77.18
	c-0.006-2.162-0.742-6.262,2.227-6.228c3.504,0.04,2.701,3.729,2.604,6.229c-0.052,1.308,0.022,2.782,0.015,4.443
	c-0.01,1.413-0.346,3.506-2.49,3.373c-1.873-0.116-2.35-2.119-2.354-3.623C59.203,80.042,59.214,78.953,59.209,77.18z M52.771,81.25
	c0.162,1.984,1.09,6.488-2.135,6.488c-2.825,0-2.413-3.742-2.341-6.113c0.049-1.639,0.001-3.98,0-5.625
	c-0.001-1.266,1.027-2.452,2.25-2.46c1.185-0.008,2.118,1.136,2.142,2.397C52.718,77.58,52.6,79.135,52.771,81.25z M86.01,70.313
	c-0.046,2.569,1.371,6.787-2.502,6.867c-2.855,0.061-2.21-4.816-2.165-7.242c0.044-2.387-0.932-6.451,2.228-6.494
	C87.033,63.396,86.061,67.438,86.01,70.313z M72.07,28.066c-2.182-0.134-3.551-0.878-5.103-2.396
	c-9.829-9.616-24.06-9.461-33.915,0.316c-1.432,1.421-2.825,1.937-4.781,2.067c-9.484,0.634-15.708,7.339-15.646,16.625
	c0.07,10.308,8.416,17.532,18.98,16.12c2.329-0.312,3.96,0.075,5.939,1.272c8.258,4.994,16.746,5.062,24.969-0.034
	c2.176-1.349,3.993-1.536,6.422-1.211c9.66,1.292,17.785-5.322,18.811-15.01C88.699,36.813,81.604,28.651,72.07,28.066z
	 M69.953,55.951c-5.48-1.4-7.84,0.623-11.956,2.795c-6.851,3.613-13.608,2.587-19.52-2.348c-1.842-1.537-3.132-2.297-5.585-1.248
	c-4.83,2.066-9.162,0.748-12.541-3.193c-3.223-3.76-3.902-8.035-1.613-12.523c2.358-4.622,6.289-7.019,11.407-6.298
	c2.792,0.396,4.092-0.631,5.671-2.543c7.763-9.396,20.845-9.471,28.47-0.05c1.782,2.202,3.28,2.84,6.123,2.584
	c6.817-0.614,12.465,4.866,12.423,11.434C82.792,50.825,76.83,57.708,69.953,55.951z"/>
</svg>
