<?xml version="1.0" encoding="utf-8"?>
<!-- Generator: Adobe Illustrator 16.0.0, SVG Export Plug-In . SVG Version: 6.00 Build 0)  -->
<!DOCTYPE svg PUBLIC "-//W3C//DTD SVG 1.1//EN" "http://www.w3.org/Graphics/SVG/1.1/DTD/svg11.dtd">
<svg version="1.1" id="图层_1" xmlns="http://www.w3.org/2000/svg" xmlns:xlink="http://www.w3.org/1999/xlink" x="0px" y="0px"
	 width="100px" height="100px" viewBox="0 0 100 100" enable-background="new 0 0 100 100" xml:space="preserve">
<path fill="#3D6081" d="M17.542,21.774c-1.423-0.023-4.238,0.56-4.238-2.104c0-2.669,2.877-2.244,4.323-2.254
	c21.465-0.146,42.932-0.148,64.396,0.008c1.444,0.01,4.319,0.036,4.319,2.391c-0.176,1.999-2.928,1.944-4.405,1.968 M54.654,32.743
	c-8.641,0-17.284,0.108-25.918-0.108c-1.389-0.035-4.109-0.218-4.109-2.324c0-2.073,2.702-1.961,4.06-1.971
	c17.612-0.134,35.227-0.144,52.838,0.018c1.352,0.012,4.033,0.185,4.033,2.376c0,1.6-2.646,1.894-3.988,1.919
	C72.602,32.825,63.627,32.742,54.654,32.743z M44.997,43.679c-7.818,0-15.64,0.114-23.452-0.102
	c-1.459-0.041-4.321,0.132-4.321-2.16c0-2.313,2.755-2.181,4.143-2.195c15.802-0.157,31.605-0.157,47.406,0.002
	c1.358,0.013,4.053-0.12,4.053,2.235c0,2.083-2.899,2.08-4.376,2.12C60.637,43.792,52.814,43.679,44.997,43.679z M58.492,49.822
	c8.145-0.003,16.291-0.097,24.431,0.093c1.291,0.03,3.827-0.119,3.827,2.053c0,2.205-2.525,2.091-3.797,2.103
	c-16.62,0.141-33.242,0.142-49.861-0.016c-1.226-0.013-3.657,0.118-3.657-2.308c0-1.951,2.408-1.813,3.629-1.836
	C41.538,49.749,50.016,49.826,58.492,49.822z M58.428,64.844c-4.496-0.004-9,0.146-13.482-0.104
	c-1.158-0.065-3.367-0.154-3.367-2.128c0-1.985,2.286-2.17,3.45-2.192c9.323-0.181,18.651-0.181,27.973,0.005
	c1.113,0.021,3.299,0.411,3.299,2.278c0,1.966-2.229,1.991-3.389,2.048C68.093,64.98,63.257,64.848,58.428,64.844z M46.043,75.589
	c-0.969-0.104-2.703-0.297-2.703-2.194c0-2.25,1.804-2.088,2.741-2.121c5.62-0.189,11.255-0.158,16.876,0.02
	c0.863,0.027,2.533,0.568,2.533,2.158c0,2.009-1.645,1.984-2.59,2.096 M48.066,86.698c-1.969,0-4.673,0.014-4.673-2.546
	c0-2.527,3.143-2.158,4.713-2.17c2.798-0.019,4.632,0.299,4.632,2.209C52.738,86.375,50.785,86.604,48.066,86.698z"/>
</svg>
