<?xml version="1.0" encoding="utf-8"?>
<!-- Generator: Adobe Illustrator 16.0.0, SVG Export Plug-In . SVG Version: 6.00 Build 0)  -->
<!DOCTYPE svg PUBLIC "-//W3C//DTD SVG 1.1//EN" "http://www.w3.org/Graphics/SVG/1.1/DTD/svg11.dtd">
<svg version="1.1" id="图层_1" xmlns="http://www.w3.org/2000/svg" xmlns:xlink="http://www.w3.org/1999/xlink" x="0px" y="0px"
	 width="100px" height="100px" viewBox="0 0 100 100" enable-background="new 0 0 100 100" xml:space="preserve">
<path fill="#3C5F81" d="M46.542,56.584c-0.105,2.863-5.302,3.756-8.625,1.5c-1.869-1.27-3.696-1.049-5.767-0.777
	c-9.816,1.279-18.046-5.109-19.06-14.621c-0.969-9.085,5.855-17.293,15.345-18.061c2.286-0.186,3.876-0.679,5.564-2.351
	c9.835-9.736,24.024-9.595,33.826,0.322c1.437,1.453,2.707,1.861,4.666,2.003c10.219,0.736,16.53,8.41,15.61,18.644
	c-0.816,9.069-9.391,15.944-19.062,14.173c-4.599-0.842-11.583,4.125-12.129-0.838c-0.4-3.641,6.211-5.02,12.379-4.162
	c4.851,0.674,8.364-0.557,11.371-4.071c3.098-3.625,3.461-7.886,1.466-12.145c-2.102-4.488-5.848-7.003-10.798-6.485
	c-3.026,0.317-4.642-0.391-6.556-2.814c-7.246-9.17-20.426-9.087-28.206,0.057c-1.734,2.038-3.037,3.208-6.078,2.794
	c-5.099-0.694-9.035,1.811-11.315,6.467c-2.113,4.314-1.503,8.498,1.557,12.117c3.301,3.904,7.691,5.766,12.495,3.568
	c2.053-0.938,4.456-0.025,5.803,1.25C40.675,54.712,46.667,53.167,46.542,56.584z M41.614,84.527
	c1.547-4.432,2.321-6.646,3.052-8.771c1.71-4.973,2.146-3.633-1.366-6.907c-2.184-2.035-2.122-1.752-0.721-3.266
	c3.565-3.852,7.076-7.755,11.198-11.158c-0.621,4.167-1.34,6.564-1.871,8.479c-1.242,4.471-1.594,3.72,1.728,6.33
	c2.724,2.142,3.241,1.701-0.011,4.615c-3.933,3.523-8.839,8.647-12.561,12.398C41.36,85.081,41.507,84.832,41.614,84.527z
	 M34.49,61.912c1.617,3.136,3.008,5.556,4.129,8.096c0.896,2.028,0.297,3.949-1.461,5.278c-1.9,1.437-4.102,1.479-5.959,0.075
	c-1.643-1.243-2.403-3.045-1.579-5.238C30.663,67.352,32.025,64.799,34.49,61.912z M65.428,61.912
	c1.617,3.136,3.008,5.556,4.129,8.096c0.896,2.028,0.299,3.949-1.461,5.278c-1.9,1.437-4.102,1.479-5.959,0.075
	c-1.643-1.243-2.402-3.045-1.578-5.238C61.602,67.352,62.963,64.799,65.428,61.912z"/>
</svg>
