<?xml version="1.0" encoding="utf-8"?>
<!-- Generator: Adobe Illustrator 16.0.0, SVG Export Plug-In . SVG Version: 6.00 Build 0)  -->
<!DOCTYPE svg PUBLIC "-//W3C//DTD SVG 1.1//EN" "http://www.w3.org/Graphics/SVG/1.1/DTD/svg11.dtd">
<svg version="1.1" id="图层_1" xmlns="http://www.w3.org/2000/svg" xmlns:xlink="http://www.w3.org/1999/xlink" x="0px" y="0px"
	 width="100px" height="100px" viewBox="0 0 100 100" enable-background="new 0 0 100 100" xml:space="preserve">
<path fill="#416384" d="M69.501,83.023c-0.082,3.022-2.157,4.832-4.983,4.692c-3.018-0.149-4.554-1.999-4.59-5.297
	c-0.033-3.087,2.217-4.274,5.074-4.296C67.834,78.104,69.574,80.344,69.501,83.023z M73.838,69.029
	c-2.89-0.077-4.605-1.996-4.628-4.865c-0.022-2.928,1.853-4.76,4.677-4.775c3.065-0.021,5.04,1.862,4.893,5.055
	C78.645,67.334,76.771,69.109,73.838,69.029z M50.507,73.771c-2.609-0.008-4.577-1.655-4.641-4.705
	c-0.062-2.934,1.49-4.813,4.382-4.985c3.172-0.188,4.951,1.638,5.018,4.821C55.326,71.943,53.45,73.781,50.507,73.771z
	 M41.168,82.691c0.124,3.033-1.489,4.849-4.32,5.025c-3.111,0.196-4.962-1.572-5-4.822c-0.035-3.027,1.736-4.74,4.562-4.791
	C39.214,78.057,41.031,79.663,41.168,82.691z M27.349,69.057c-3.181,0.084-5.032-2.045-5.032-4.836
	c0.001-3.066,2.03-5.043,5.125-4.837c2.745,0.183,4.628,2.001,4.494,4.968C31.802,67.279,29.856,68.989,27.349,69.057z
	 M72.734,22.022c-2.356-0.115-3.883-0.895-5.526-2.528c-9.583-9.522-23.674-9.419-33.406,0.148
	c-1.466,1.442-2.829,2.293-5.086,2.399c-10.027,0.471-16.789,8.629-15.673,18.515c1.044,9.246,9.861,15.777,19.457,14.029
	c2.283-0.416,3.702,0.224,5.444,1.281c8.263,5.013,16.691,5.09,24.962,0.132c2.129-1.275,3.873-1.711,6.394-1.294
	c10.009,1.655,18.866-6.176,18.847-16.321C88.129,29.499,81.637,22.457,72.734,22.022z M80.291,45.941
	c-3.225,3.639-7.395,5.209-12.15,3.298c-2.533-1.018-4.135-0.373-6.186,1.25c-7.201,5.698-15.645,5.601-22.933-0.079
	c-1.653-1.289-2.948-2.395-5.267-1.385c-5.094,2.219-9.553,0.686-13.05-3.265c-3.131-3.538-3.627-7.767-1.685-12.127
	c2.043-4.585,5.995-6.782,12.007-6.679c2.234,0.714,3.616-0.591,5.156-2.417c7.856-9.321,20.204-9.595,28.256-0.56
	c1.925,2.16,3.595,3.342,6.672,3.018c4.988-0.526,8.682,1.971,10.867,6.4C84.189,37.874,83.552,42.259,80.291,45.941z"/>
</svg>
