<?xml version="1.0" encoding="utf-8"?>
<!-- Generator: Adobe Illustrator 16.0.0, SVG Export Plug-In . SVG Version: 6.00 Build 0)  -->
<!DOCTYPE svg PUBLIC "-//W3C//DTD SVG 1.1//EN" "http://www.w3.org/Graphics/SVG/1.1/DTD/svg11.dtd">
<svg version="1.1" id="图层_1" xmlns="http://www.w3.org/2000/svg" xmlns:xlink="http://www.w3.org/1999/xlink" x="0px" y="0px"
	 width="100px" height="100px" viewBox="0 0 100 100" enable-background="new 0 0 100 100" xml:space="preserve">
<path fill="#3C5F81" d="M36.021,27.015c2.423,0.08,4.142-0.003,4.135,2.057c-0.005,1.571-1.807,1.649-3.159,1.628
	c-1.569-0.026-3.167,0.015-3.242-1.843C33.688,27.188,35.604,26.994,36.021,27.015z M36.967,53.219
	c-1.384,0.026-3.194-0.228-3.19-1.732c0.004-1.503,1.819-1.805,3.19-1.781c1.345,0.024,3.194,0.21,3.189,1.795
	C40.151,53.075,38.315,53.191,36.967,53.219z M40.156,40c0,1.507-1.219,1.94-2.72,1.935c-1.383-0.005-2.421-0.121-2.502-1.733
	c-0.063-1.242,1.448-1.728,2.446-1.733C39.063,38.46,40.156,38.688,40.156,40z M37.569,32.991c1.23-0.056,2.548,0.194,2.586,1.567
	c0.029,1.038-1.149,1.435-2.232,1.449c-1.216,0.016-2.538-0.123-2.562-1.575C35.343,33.321,36.485,32.959,37.569,32.991z
	 M40.155,45.547c0.039,1.328-1.333,1.688-2.304,1.707c-1.045,0.021-2.562-0.004-2.612-1.41c-0.054-1.498,1.273-1.707,2.458-1.739
	C39.073,44.068,40.117,44.23,40.155,45.547z M63.83,59.618c-4.023-3.284-4.061-6.677-3.997-10.782
	c0.039-2.494,0.007-4.989,0.003-7.484c-0.004-3.992,0.119-7.988-0.034-11.975c-0.219-5.758-3.584-9.375-8.319-9.22
	c-4.639,0.152-7.551,3.569-7.627,9.234c-0.092,6.818-0.151,13.642,0.024,20.456c0.097,3.79-0.637,6.708-3.515,9.705
	c-5.933,6.179-4.996,16.304,1.302,21.912c6.088,5.42,15.6,5.287,21.311-0.298C68.807,75.465,69.828,64.514,63.83,59.618z
	 M61.561,78.18c-4.496,5.037-12.422,5.5-17.458,1.021c-5.196-4.623-6.003-13.063-0.889-17.758c3.226-2.961,3.919-5.894,3.762-9.91
	c-0.194-4.969-0.975-4.274,4.844-4.279c5.462-0.004,4.604-0.946,4.611,4.588c0.006,3.69,0.726,6.379,3.728,8.774
	C65.91,65.207,66.361,72.801,61.561,78.18z"/>
</svg>
