<?xml version="1.0" encoding="utf-8"?>
<!-- Generator: Adobe Illustrator 16.0.0, SVG Export Plug-In . SVG Version: 6.00 Build 0)  -->
<!DOCTYPE svg PUBLIC "-//W3C//DTD SVG 1.1//EN" "http://www.w3.org/Graphics/SVG/1.1/DTD/svg11.dtd">
<svg version="1.1" id="图层_1" xmlns="http://www.w3.org/2000/svg" xmlns:xlink="http://www.w3.org/1999/xlink" x="0px" y="0px"
	 width="100px" height="100px" viewBox="0 0 100 100" enable-background="new 0 0 100 100" xml:space="preserve">
<path fill-rule="evenodd" clip-rule="evenodd" fill="#3C5F81" d="M78.645,39.459c-8.007-4.623-18.59-4.057-25.781,1.726
	c-2.091,1.683-3.094,1.771-5.25,0.051c-8.586-6.851-21.927-6.306-29.339,0.876c-6.419,6.22-5.778,15.355,1.451,20.68
	c8.202,6.042,20.065,5.815,28.265-0.779c1.719-1.383,2.563-1.757,4.374-0.086c3.938,3.634,8.813,5.171,15.011,5.085
	c3.456,0.312,7.443-0.704,11.123-2.842c4.717-2.742,8.005-6.539,8.021-12.312C86.535,46.11,83.413,42.212,78.645,39.459z
	 M42.285,58.721c-2.622,1.518-5.498,2.286-8.557,2.281c-3.564,0.003-6.942-0.759-9.887-2.817c-5.379-3.758-5.375-9.514,0.204-12.906
	c5.991-3.643,12.349-3.724,18.432-0.249C48.774,48.627,48.605,55.063,42.285,58.721z M76.296,58.384
	c-2.543,1.637-6.163,2.634-10.473,2.599c-0.646-0.126-2.292-0.344-3.879-0.776c-4.418-1.205-8.123-3.403-8.66-8.412
	c-0.384-3.576,4.004-7.647,9.063-8.641c4.824-0.947,9.609-0.792,13.928,1.977C81.971,48.781,81.957,54.741,76.296,58.384z"/>
</svg>
