<?xml version="1.0" encoding="utf-8"?>
<!-- Generator: Adobe Illustrator 16.0.0, SVG Export Plug-In . SVG Version: 6.00 Build 0)  -->
<!DOCTYPE svg PUBLIC "-//W3C//DTD SVG 1.1//EN" "http://www.w3.org/Graphics/SVG/1.1/DTD/svg11.dtd">
<svg version="1.1" id="图层_1" xmlns="http://www.w3.org/2000/svg" xmlns:xlink="http://www.w3.org/1999/xlink" x="0px" y="0px"
	 width="100px" height="100px" viewBox="0 0 100 100" enable-background="new 0 0 100 100" xml:space="preserve">
<path fill-rule="evenodd" clip-rule="evenodd" fill="#3D5F81" d="M66.669,34.111c-7.593-5.985-5.385-5.078-5.2-11.767
	c0.066-2.41-0.745-3.042-2.625-3.236c-1.597-0.165-2.736,0.884-2.781,1.799c-0.375,7.594,3,5.875-10.416,5.399
	c-4.488-0.159-7.101,2.113-7.91,7.125c-1.669,10.336-4.032,20.562-6.172,30.82c-1.395,6.685-0.01,9.304,6.473,11.844
	c8.174,3.202,12.026,2.668,15.462-3.469c0.865-1.545,1.573-2.65,2.451-4.188c0,0,0.007,2.145,0.006,1.52
	c0,1.997,0.068,2.143,0.025,4.138c-0.062,2.903,1.229,6.668-4.118,6.204c-0.873-0.075-1.741,1.059-1.541,2.195
	c0.23,1.304,1.186,1.981,2.505,1.998c3.332,0.042,6.663,0.067,9.996,0.048c1.543-0.009,3.177-0.117,3.174-2.241
	c-0.002-1.677-1.175-2.361-2.673-2.263c-2.26,0.147-2.716-0.95-2.806-2.988c-0.256-5.846,0.699-18.609,0.699-18.609
	s4.5-6.297,7.031-11.354c0.294-0.587,0.946-1.653,1.25-2.292C71.167,41.292,70.295,36.968,66.669,34.111z M52.937,30.508
	c1.446,0.443,3.157,1.023,3.157,1.023c0.063,2.5-0.163,2.423-0.185,5.52c-0.005,0.692-0.003,1.449-0.003,1.449
	s-0.747-0.134-1.778-0.535c-4.063-1.583-8.212-3.084-10.797-7.799C46.907,29.668,49.941,29.591,52.937,30.508z M36.362,71.456
	c-1.434-1.038-2.551-2.218-2.205-4.12c0.356-1.955,0.767-4.107,1.093-5.68c0.309-1.49,3.603,1.272,5.236,2.053
	c3.476,1.66,8.677,2.764,12.764,3.447C49,76.188,43.303,76.482,36.362,71.456z M51.959,63.791c-6.723-1.281-8.615-1.666-13.24-4.572
	c-2.164-1.359-2.969-1.42-0.709-9.248c4.441,3.73,9.176,5.976,14.487,6.99c0.875,0.168,2.793,0.315,2.793,0.315
	s-0.018,1.819,0.023,2.599c0.104,1.999-1.146,4.208-1.146,4.208S52.764,63.944,51.959,63.791z M55.219,54.156
	c0,0-3.1-0.462-5.813-1.313c-1.241-0.389-1.305-0.32-2.5-0.881c-7.925-3.716-8.853-3.944-6.923-13.354
	c0.331-1.614,0.744-3.211,1.253-5.388c3.847,3.952,7.849,6.094,12.238,7.789c1.004,0.388,2.275,0.647,2.275,0.647L55.219,54.156z
	 M60.459,52.834c-0.056-2.406,0.354-9.99,0.354-9.99s2.721-0.03,4.969-0.531C64.98,45.308,62.395,50.229,60.459,52.834z
	 M60.656,33.719c2.75,1,3.962,2.861,5.344,4.849c-2.719,1.026-5.438,1.089-5.438,1.089S60.657,36.905,60.656,33.719z"/>
</svg>
