<?xml version="1.0" encoding="utf-8"?>
<!-- Generator: Adobe Illustrator 16.0.0, SVG Export Plug-In . SVG Version: 6.00 Build 0)  -->
<!DOCTYPE svg PUBLIC "-//W3C//DTD SVG 1.1//EN" "http://www.w3.org/Graphics/SVG/1.1/DTD/svg11.dtd">
<svg version="1.1" id="图层_1" xmlns="http://www.w3.org/2000/svg" xmlns:xlink="http://www.w3.org/1999/xlink" x="0px" y="0px"
	 width="100px" height="100px" viewBox="0 0 100 100" enable-background="new 0 0 100 100" xml:space="preserve">
<path fill="#496A89" d="M18.074,30.452c1.923,0.088,4.541-0.098,4.54,2.397c0,2.932-2.746,2.705-4.911,2.7
	c-2.009-0.005-4.454,0.243-4.542-2.524C13.079,30.454,16.028,30.59,18.074,30.452z M41.087,7.232
	c-0.093-2.159-0.05-4.614,2.637-4.614c2.609,0,2.321,2.86,2.398,4.799c0.068,1.703,0.016,4.304-2.245,4.299
	C41.062,11.71,41.163,8.987,41.087,7.232z M66.021,32.724c-0.84-0.078-1.57-0.853-1.771-1.328c-0.623-1.478,0.023-3.421,2.441-3.725
	c2.256-0.282,5.519-0.887,6.703,0.648c0.959,1.243,0.922,3.561-1.41,4.064C70.061,32.798,68.006,32.907,66.021,32.724z
	 M29.033,15.709c0.351,1.837-1.001,3.146-2.533,2.792c-1.708-0.396-4.745-3.419-4.938-5.208c-0.128-1.19,0.919-2.472,2.604-2.396
	C26.458,11,28.704,13.985,29.033,15.709z M60.375,18.792c-1.689-0.108-2.24-1.099-1.975-2.507c0.453-2.389,1.509-4.065,4.203-5.347
	c1.461-0.694,3.097,0.482,3.084,1.729C65.657,15.716,62.016,18.896,60.375,18.792z M73.701,40.027
	c-3.571-0.294-5.027-1.995-7.742-3.943c-0.701-0.503-0.354-0.327-1.959-1.333c-2.043-1.28-3.452-1.504-4.15-4.684
	c-2.195-9.983-10.664-15.381-20.022-13.261C31.04,18.795,25.899,27.01,27.706,36.659c0.439,2.346-0.073,3.138-2.253,3.882
	c-9.078,3.101-13.903,10.796-12.16,19.006c1.909,8.997,9.417,14.098,19.434,13.039c1.712-0.18,3.063-0.287,4.558,0.948
	c1.03,0.852,2.169,0.903,3.342-0.461c1.087-1.267,1.063-2.156-0.362-3.72c-1.05-1.148-5.045-2.155-7.264-1.688
	c-4.739,1.001-9.182-0.074-12.416-4.163c-3.064-3.873-3.589-8.274-1.101-12.599c2.08-3.613,6.33-6.958,10.736-6.863
	c1.791,0.038,3.905-0.911,5.375-2.563c4.563-5.125,18.592-9.415,25.313-3.094c3.855,3.628,7.556,6.974,13.716,7.156
	c6.438,0.192,9.999,7.746,8.259,14.033c-1.688,6.099-8.455,9.853-14.564,7.583c-1.658-0.616-5.252,0.32-7.285,2.312
	c-1.127,1.103-1.287,2.646-0.623,3.666c0.656,1.009,2.719,1.438,3.656,0.531c2.973-2.874,4.781-1.095,6.896-0.872
	c8.706,0.911,16.334-5.913,17.129-14.078C89.041,48.938,83.08,40.801,73.701,40.027z M33.364,37.364
	c-2.67-6.465,0.121-13.11,6.435-15.32c6.625-2.32,13.094,1.744,14.951,8.904C44.344,30.761,43.291,30.789,33.364,37.364z
	 M50.627,62.348c1.98,3.771,3.596,6.311,4.674,9.06c0.912,2.325,0.387,4.678-1.986,6.087c-1.842,1.095-3.846,1.138-5.629-0.123
	c-2.166-1.53-2.854-3.751-1.777-6.148C47.105,68.547,48.646,66.023,50.627,62.348z M25.897,74.689
	c1.98,3.771,3.596,6.311,4.674,9.06c0.912,2.325,0.387,4.678-1.986,6.087c-1.842,1.096-3.846,1.139-5.63-0.123
	c-2.166-1.529-2.854-3.751-1.777-6.148C22.375,80.891,23.917,78.367,25.897,74.689z M42.504,77.189
	c1.98,3.771,3.596,6.311,4.674,9.06c0.912,2.325,0.387,4.678-1.986,6.087c-1.842,1.096-3.846,1.139-5.63-0.123
	c-2.166-1.529-2.854-3.751-1.777-6.148C38.982,83.391,40.523,80.867,42.504,77.189z M59.309,77.189
	c1.979,3.771,3.596,6.311,4.674,9.06c0.912,2.325,0.387,4.678-1.986,6.087c-1.842,1.096-3.846,1.139-5.63-0.123
	c-2.166-1.529-2.854-3.751-1.777-6.148C55.785,83.391,57.326,80.867,59.309,77.189z M76.081,75.314
	c1.979,3.771,3.596,6.311,4.674,9.06c0.912,2.325,0.388,4.678-1.985,6.087c-1.843,1.096-3.847,1.139-5.631-0.123
	c-2.166-1.529-2.854-3.751-1.777-6.148C72.559,81.516,74.1,78.992,76.081,75.314z"/>
</svg>
