<?xml version="1.0" encoding="utf-8"?>
<!-- Generator: Adobe Illustrator 16.0.0, SVG Export Plug-In . SVG Version: 6.00 Build 0)  -->
<!DOCTYPE svg PUBLIC "-//W3C//DTD SVG 1.1//EN" "http://www.w3.org/Graphics/SVG/1.1/DTD/svg11.dtd">
<svg version="1.1" id="图层_1" xmlns="http://www.w3.org/2000/svg" xmlns:xlink="http://www.w3.org/1999/xlink" x="0px" y="0px"
	 width="100px" height="100px" viewBox="0 0 100 100" enable-background="new 0 0 100 100" xml:space="preserve">
<path fill="#3C5F81" d="M79.352,41.322c0.746,1.188,1.172,2.44,1.172,3.738c0,2.712-1.768,5.231-4.778,7.353
	c0.75,1.11,1.153,2.293,1.153,3.521c0,2.819-2.162,5.396-5.728,7.42c0.177,0.535,0.292,1.08,0.292,1.641
	c0,0.785-0.201,1.547-0.546,2.279c2.581,1.584,4.169,3.625,4.169,5.875c0,1.379-0.604,2.682-1.65,3.853
	c1.021,1.019,1.65,2.161,1.65,3.396c0,1.914-1.417,3.642-3.689,4.938c-0.334,2.309-3.4,4.123-7.182,4.123
	c-2.544,0-4.771-0.822-6.066-2.061c-5.789-0.789-10.1-3.543-10.216-6.864c-4.292-1.605-7.132-4.216-7.254-7.185
	c-5.461-1.777-9.079-4.853-9.079-8.354c0-0.557,0.114-1.098,0.29-1.629c-3.57-2.026-5.726-4.608-5.726-7.432
	c0-0.918,0.249-1.807,0.675-2.664c-3.818-2.281-6.111-5.12-6.111-8.208c0-1.298,0.425-2.549,1.172-3.738
	c-4.143-2.523-6.608-5.606-6.608-8.946c0-8.506,15.82-15.402,35.334-15.402c19.514,0,35.334,6.896,35.334,15.402
	C85.958,35.716,83.494,38.798,79.352,41.322z M76.898,45.06c0-0.728-0.219-1.436-0.608-2.119c-2.961,1.366-6.485,2.49-10.416,3.313
	c3.062,0.983,5.662,2.251,7.548,3.748C75.622,48.543,76.898,46.859,76.898,45.06z M66.57,77.291
	c-1.491-0.324-3.213-0.521-5.073-0.521c-3.327,0-6.252,0.599-8.063,1.51c1.393,0.191,2.881,0.303,4.438,0.303
	C61.2,78.582,64.209,78.085,66.57,77.291z M65.04,68.545c-2.085-0.521-4.528-0.835-7.168-0.835c-5.483,0-10.181,1.306-12.328,3.177
	c1.855,0.285,3.871,0.447,5.987,0.447C57.15,71.334,62.105,70.229,65.04,68.545z M51.531,64.086c5.535,0,10.57-0.781,14.41-2.061
	c-2.738-2.008-8.16-3.375-14.41-3.375c-6.252,0-11.674,1.367-14.412,3.375C40.958,63.305,45.995,64.086,51.531,64.086z
	 M70.126,51.723c-3.81-2.362-10.701-3.945-18.595-3.945c-8.395,0-15.663,1.786-19.288,4.397c4.739,1.763,11.221,2.851,18.38,2.851
	C58.374,55.025,65.316,53.745,70.126,51.723z M73.824,40.386c-4.416-3.146-13.143-5.292-23.2-5.292
	c-10.056,0-18.784,2.146-23.2,5.292c5.79,2.313,14.028,3.768,23.2,3.768C59.797,44.154,68.035,42.698,73.824,40.386z M73.273,55.932
	c0-0.604-0.188-1.189-0.52-1.756c-2.488,1.247-5.475,2.281-8.824,3.041c2.27,0.908,4.148,2.049,5.452,3.363
	C71.83,59.261,73.273,57.66,73.273,55.932z M66.666,65.367c0.363,0.115,0.7,0.251,1.047,0.378c0.075-0.247,0.125-0.497,0.125-0.753
	c0-0.026-0.008-0.051-0.01-0.077C67.441,65.066,67.072,65.229,66.666,65.367z M68.811,69.945c-1.506,1.311-3.611,2.416-6.095,3.266
	c3.015,0.146,5.732,0.8,7.854,1.823c0.551-0.591,0.893-1.222,0.893-1.888C71.463,71.945,70.459,70.846,68.811,69.945z
	 M70.795,79.118c-1.076,0.646-2.372,1.171-3.751,1.635c1.2,0.317,2.218,0.843,2.983,1.488c0.891-0.542,1.436-1.171,1.436-1.847
	C71.463,79.943,71.209,79.518,70.795,79.118z M57.282,83.671c0.256-0.552,0.667-1.058,1.214-1.501
	c-0.213,0.004-0.409,0.036-0.624,0.036c-1.983,0-3.88-0.187-5.651-0.511C53.146,82.568,54.975,83.273,57.282,83.671z M49.222,77.328
	c0.822-0.934,2.01-1.745,3.459-2.409c-0.387,0.011-0.761,0.039-1.15,0.039c-2.431,0-4.75-0.229-6.903-0.627
	C45.295,75.527,46.95,76.572,49.222,77.328z M41.705,70.045c0.71-1.021,1.755-1.958,3.071-2.771c-3.56-0.455-6.796-1.269-9.546-2.34
	c-0.001,0.02-0.008,0.039-0.008,0.059C35.222,67.059,37.774,68.889,41.705,70.045z M33.678,60.58
	c1.18-1.191,2.831-2.242,4.815-3.105c-3.166-0.641-6.034-1.522-8.505-2.597c-0.119,0.347-0.203,0.695-0.203,1.054
	C29.786,57.66,31.23,59.261,33.678,60.58z M24.351,45.06c0,2.073,1.671,3.998,4.526,5.592c1.794-1.655,4.436-3.067,7.614-4.165
	c-4.385-0.836-8.291-2.052-11.532-3.547C24.568,43.624,24.351,44.332,24.351,45.06z M50.624,20.598
	c-17.513,0-31.71,5.273-31.71,11.778c0,2.378,1.913,4.587,5.175,6.438c4.978-4.36,14.981-7.344,26.535-7.344
	c11.554,0,21.56,2.983,26.535,7.344c3.263-1.851,5.176-4.06,5.176-6.438C82.335,25.871,68.139,20.598,50.624,20.598z M25.487,13.686
	c1.064,0,1.926,0.862,1.926,1.926c0,1.064-0.862,1.926-1.926,1.926c-1.063,0-1.926-0.862-1.926-1.926
	C23.561,14.548,24.423,13.686,25.487,13.686z M13.364,38.936c1.064,0,1.926,0.862,1.926,1.926c0,1.064-0.862,1.926-1.926,1.926
	c-1.063,0-1.926-0.862-1.926-1.926C11.438,39.798,12.3,38.936,13.364,38.936z M18.239,52.436c1.064,0,1.926,0.861,1.926,1.926
	c0,1.063-0.862,1.926-1.926,1.926c-1.063,0-1.926-0.862-1.926-1.926C16.313,53.297,17.175,52.436,18.239,52.436z M28.364,63.686
	c1.064,0,1.926,0.861,1.926,1.926c0,1.063-0.862,1.926-1.926,1.926c-1.063,0-1.926-0.862-1.926-1.926
	C26.438,64.547,27.3,63.686,28.364,63.686z M34.739,76.311c1.064,0,1.926,0.861,1.926,1.926c0,1.063-0.862,1.926-1.926,1.926
	c-1.063,0-1.926-0.862-1.926-1.926C32.813,77.172,33.675,76.311,34.739,76.311z M45.114,82.061c1.064,0,1.926,0.861,1.926,1.926
	c0,1.063-0.862,1.926-1.926,1.926c-1.063,0-1.926-0.862-1.926-1.926C43.188,82.922,44.05,82.061,45.114,82.061z M76.613,65.611
	c1.063,0,1.926,0.861,1.926,1.926c0,1.063-0.862,1.926-1.926,1.926c-1.064,0-1.926-0.862-1.926-1.926
	C74.688,66.473,75.549,65.611,76.613,65.611z M80.465,52.436c1.064,0,1.926,0.861,1.926,1.926c0,1.063-0.861,1.926-1.926,1.926
	c-1.063,0-1.926-0.862-1.926-1.926C78.539,53.297,79.401,52.436,80.465,52.436z M85.958,39.685c1.063,0,1.926,0.862,1.926,1.926
	c0,1.064-0.862,1.926-1.926,1.926s-1.926-0.862-1.926-1.926C84.032,40.547,84.895,39.685,85.958,39.685z M70.208,13.686
	c1.063,0,1.926,0.862,1.926,1.926c0,1.064-0.862,1.926-1.926,1.926s-1.926-0.862-1.926-1.926
	C68.282,14.548,69.145,13.686,70.208,13.686z M40.333,25.186c1.063,0,1.926,0.862,1.926,1.926c0,1.064-0.862,1.926-1.926,1.926
	s-1.926-0.862-1.926-1.926C38.407,26.048,39.27,25.186,40.333,25.186z M54.333,37.01c1.063,0,1.926,0.862,1.926,1.926
	c0,1.063-0.862,1.926-1.926,1.926S52.407,40,52.407,38.936C52.407,37.872,53.27,37.01,54.333,37.01z"/>
</svg>
