<?xml version="1.0" encoding="utf-8"?>
<!-- Generator: Adobe Illustrator 16.0.0, SVG Export Plug-In . SVG Version: 6.00 Build 0)  -->
<!DOCTYPE svg PUBLIC "-//W3C//DTD SVG 1.1//EN" "http://www.w3.org/Graphics/SVG/1.1/DTD/svg11.dtd">
<svg version="1.1" id="图层_1" xmlns="http://www.w3.org/2000/svg" xmlns:xlink="http://www.w3.org/1999/xlink" x="0px" y="0px"
	 width="100px" height="100px" viewBox="0 0 100 100" enable-background="new 0 0 100 100" xml:space="preserve">
<path fill="#3C5F81" d="M73.632,48.503c-3.507-0.441-3.944,0.715-6.291-2.287c-0.528-0.467-1.303-1.421-2.341-2.203
	c-5.969-4.545-4.703-2.311-5.493-5.836c-2.177-9.73-10.649-14.981-19.742-12.981c-8.992,1.977-14.159,10.283-12.296,20.222
	c0.387,2.065,0.284,2.768-1.875,3.469c-9.549,3.103-14.137,10.339-12.492,19.207c1.59,8.569,9.039,13.742,18.977,12.904
	c3.35-0.282,2.833-0.546,6.019,1.426c7.518,4.652,15.419,5.037,23.179,0.797c6.369-3.482,3.805-2.486,9.33-2.17
	c9.215,0.529,16.509-5.673,17.348-14.223C88.868,57.506,82.994,49.681,73.632,48.503z M40.852,30.104
	c6.185-1.449,11.839,2.23,13.351,9.029c-7.375-0.877-13.907,0.973-19.519,5.792c-2.349,2.017-2.345-0.33-2.618-1.607
	C30.841,37.596,34.944,31.487,40.852,30.104z M80.957,71.41c-3.037,4.199-7.376,6.021-12.241,4.41
	c-3.168-1.049-5.044-0.332-7.463,1.533c-5.593,4.313-11.936,5.004-18.306,1.976c-6.478-3.079-6.041-3.829-12.996-2.994
	c-7.452-0.094-12.569-5.774-12.042-12.528c0.497-6.367,6.463-11.509,12.753-10.356c2.694,0.493,3.775-0.365,5.256-2.218
	c7.897-9.875,21.287-9.825,29.155,0.062c1.306,1.642,2.2,2.771,4.8,2.218c5.111-1.085,9.127,1.297,11.68,5.694
	C83.918,63.279,83.762,67.534,80.957,71.41z M17.527,38.397c1.923,0.088,4.541-0.098,4.54,2.396c0,2.933-2.746,2.705-4.911,2.701
	c-2.009-0.006-4.454,0.242-4.542-2.525C12.532,38.399,15.481,38.535,17.527,38.397z M40.541,15.178
	c-0.093-2.159-0.05-4.614,2.637-4.614c2.609,0,2.321,2.86,2.398,4.799c0.068,1.703,0.016,4.304-2.244,4.299
	C40.515,19.656,40.616,16.932,40.541,15.178z M65.475,40.669c-0.841-0.077-1.57-0.852-1.771-1.327
	c-0.623-1.478,0.023-3.421,2.441-3.725c2.256-0.282,5.519-0.888,6.703,0.648c0.959,1.243,0.922,3.562-1.41,4.063
	C69.514,40.743,67.459,40.853,65.475,40.669z M28.486,23.654c0.351,1.837-1.001,3.146-2.533,2.792
	c-1.708-0.396-4.745-3.419-4.938-5.208c-0.128-1.19,0.919-2.472,2.604-2.396C25.912,18.946,28.157,21.931,28.486,23.654z
	 M59.828,26.737c-1.689-0.108-2.24-1.099-1.975-2.507c0.453-2.389,1.508-4.065,4.203-5.347c1.461-0.694,3.096,0.482,3.084,1.729
	C65.109,23.661,61.468,26.842,59.828,26.737z"/>
</svg>
