<?xml version="1.0" encoding="utf-8"?>
<!-- Generator: Adobe Illustrator 16.0.0, SVG Export Plug-In . SVG Version: 6.00 Build 0)  -->
<!DOCTYPE svg PUBLIC "-//W3C//DTD SVG 1.1//EN" "http://www.w3.org/Graphics/SVG/1.1/DTD/svg11.dtd">
<svg version="1.1" id="图层_1" xmlns="http://www.w3.org/2000/svg" xmlns:xlink="http://www.w3.org/1999/xlink" x="0px" y="0px"
	 width="100px" height="100px" viewBox="0 0 100 100" enable-background="new 0 0 100 100" xml:space="preserve">
<path fill-rule="evenodd" clip-rule="evenodd" fill="#3D6081" d="M75.602,80.23c-2.96,0.158-3.07-1.573-3.063-3.796
	c0.049-15.134,0.028-30.268,0.021-45.401c-0.001-1.51,0.088-2.949,0.913-4.314c0.872-1.442,0.626-2.87-0.572-4.087
	c-1.214-1.233-2.678-1.341-4.121-0.632c-3.91,1.921-7.479,1.433-11.05-0.984c-3.408-2.308-6.545-2.343-9.707,1.017
	C40.617,29.9,33.015,37.586,25.337,45.188c-2.971,2.943-3.08,5.963-1.482,9.476c1.127,2.479,2.962,4.378,4.767,6.336
	c3.013,3.267,5.897,3.71,10.065,1.332c9.336-5.325,19.046-9.995,29.454-15.37c0,10.638-0.081,20.438,0.055,30.237
	c0.036,2.576-1.117,3.026-3.26,3.051c-1.293,0.015-2.107,0.918-2.019,2.336c0.096,1.515,1.192,1.904,2.428,1.923
	c3.325,0.049,6.652,0.048,9.978,0.014c1.212-0.012,2.365-0.29,2.578-1.781C78.148,81.001,77.083,80.151,75.602,80.23z M67.58,29.836
	c-1.985-0.403-2.485-2.037-3.419-3.767C67.478,26.057,68.434,27.212,67.58,29.836z M39.779,58.222
	c-4.272,3.363-6.473,3.297-10.096-0.728c-5.313-5.904-5.055-7.752,2.061-13.608c1.92,4.464,4.169,8.672,8.045,11.728
	C40.885,56.479,41.214,57.092,39.779,58.222z M38.422,49.902c-4.914-6.223-4.873-8.956,0.707-13.828
	c2.07,6.938,5.885,12.02,11.325,15.922C44.71,56.097,43.07,55.788,38.422,49.902z M46.553,43.178
	c-6.202-7.622-5.211-11.327,4.021-18.485c1.968,8.97,7.088,15.2,14.494,19.759C54.531,51.378,53.532,51.755,46.553,43.178z
	 M54.002,22.66c7.747,4.325,12.288,10.382,14.179,19.484C59.692,38.562,53.864,30.45,54.002,22.66z"/>
</svg>
