<?xml version="1.0" encoding="utf-8"?>
<!-- Generator: Adobe Illustrator 16.0.0, SVG Export Plug-In . SVG Version: 6.00 Build 0)  -->
<!DOCTYPE svg PUBLIC "-//W3C//DTD SVG 1.1//EN" "http://www.w3.org/Graphics/SVG/1.1/DTD/svg11.dtd">
<svg version="1.1" id="图层_1" xmlns="http://www.w3.org/2000/svg" xmlns:xlink="http://www.w3.org/1999/xlink" x="0px" y="0px"
	 width="100px" height="100px" viewBox="0 0 100 100" enable-background="new 0 0 100 100" xml:space="preserve">
<path fill="#446686" d="M26.055,24.195c2.02-0.09,7.328,5.062,7.311,6.979c-0.015,1.68-0.759,2.829-2.63,2.961
	c-1.888,0.135-7.312-4.566-7.411-6.596C23.229,25.562,24.456,24.573,26.055,24.195z M78.135,76.191
	c-0.046,1.76-0.902,2.789-2.697,2.906c-1.857,0.123-7.283-4.869-7.233-6.791c0.048-1.882,1.092-3.132,3.06-3.224
	C73.198,68.993,78.165,74.223,78.135,76.191z M47.806,19.56c0.047-2.282-0.455-5.252,2.797-5.394
	c3.674-0.16,3.201,2.994,3.263,5.446c0.021,0.828-0.001,1.657-0.003,2.485c-0.002,2.104-0.848,3.643-3.104,3.68
	c-2.413,0.039-2.921-1.729-2.946-3.731C47.803,21.217,47.811,20.389,47.806,19.56z M18.984,48.778
	c2.244,0.344,5.708-0.995,5.846,2.721c0.145,3.916-3.332,3.278-5.895,3.344c-2.489,0.063-5.588,0.349-5.61-3.153
	C13.301,47.839,16.71,49.091,18.984,48.778z M82.455,48.776c2.288,0.322,5.707-0.983,5.816,2.75
	c0.115,3.893-3.285,3.354-5.855,3.307c-2.343-0.044-5.512,0.684-5.493-3.096C76.941,47.791,80.271,49.13,82.455,48.776z
	 M47.799,83.408c0.206-1.737-0.541-3.703,1.133-5.084c1.334-1.1,2.744-0.995,4,0.137c1.352,1.221,1.359,8.629,0.014,9.859
	c-1.262,1.154-2.8,1.195-4.05,0.188C47.261,87.191,47.975,85.161,47.799,83.408z M78.098,26.056
	c0.092,3.185-4.584,8.023-6.785,8.086c-1.754,0.05-2.849-0.796-3.097-2.512c-0.297-2.061,4.998-7.526,7.155-7.4
	C77.105,24.33,78.049,25.323,78.098,26.056z M26.583,79.096c-2.008,0.027-3.087-1.1-3.245-2.968
	c-0.156-1.842,5.171-7.108,7.031-7.035c1.709,0.066,2.744,1.029,2.921,2.753C33.491,73.805,28.691,78.954,26.583,79.096z
	 M50.859,31.432c-11.365,0.029-20.285,8.867-20.416,20.229c-0.127,11.083,9.095,20.299,20.344,20.332
	c11.301,0.032,20.315-8.948,20.332-20.253C71.135,40.415,62.145,31.401,50.859,31.432z M50.83,65.986
	c-7.764-0.018-14.249-6.51-14.244-14.26c0.005-7.922,6.258-14.143,14.237-14.161c7.975-0.019,14.172,6.167,14.167,14.144
	C64.984,59.561,58.593,66.004,50.83,65.986z"/>
</svg>
