<?xml version="1.0" encoding="utf-8"?>
<!-- Generator: Adobe Illustrator 16.0.0, SVG Export Plug-In . SVG Version: 6.00 Build 0)  -->
<!DOCTYPE svg PUBLIC "-//W3C//DTD SVG 1.1//EN" "http://www.w3.org/Graphics/SVG/1.1/DTD/svg11.dtd">
<svg version="1.1" id="图层_1" xmlns="http://www.w3.org/2000/svg" xmlns:xlink="http://www.w3.org/1999/xlink" x="0px" y="0px"
	 width="100px" height="100px" viewBox="0 0 100 100" enable-background="new 0 0 100 100" xml:space="preserve">
<path fill="#3C5F81" d="M48.492,54.993c-9.988,0-19.977-0.013-29.965,0.01c-2.39,0.005-5.174,0.202-5.208-3.056
	c-0.036-3.428,2.901-2.948,5.194-2.949c16.148-0.01,32.295-0.033,48.444,0.023c2.533,0.009,4.203,0.099,4.184-3.508
	c-0.029-5.009,4.019-8.242,8.873-8.047c4.687,0.188,8.494,4.142,8.467,8.789c-0.028,4.738-3.508,8.556-8.525,8.675
	c-8.484,0.204-16.979,0.062-25.469,0.063C52.486,54.994,50.489,54.993,48.492,54.993z M40.266,60.439
	c7.492,0,14.988-0.149,22.472,0.062c4.025,0.114,6.99,2.345,8.035,6.336c0.951,3.634,0.144,6.972-3.037,9.356
	c-3.108,2.33-6.465,2.511-9.828,0.647c-2.285-1.266-4.249-3.286-3.997-5.909c0.448-4.687-2.229-4.445-5.44-4.402
	c-8.822,0.123-17.646,0.043-26.47,0.043c-0.833,0-1.668,0.051-2.497-0.01c-2.539-0.183-6.175,0.629-6.111-3.209
	c0.057-3.375,3.468-2.903,5.896-2.924c6.992-0.057,13.984-0.02,20.977-0.02C40.266,60.421,40.266,60.432,40.266,60.439z
	 M34.44,43.556c-5.655,0-11.311,0.035-16.966-0.018c-2.116-0.02-4.26-0.523-4.204-3.16c0.057-2.627,2.158-2.973,4.318-2.967
	c6.986,0.017,13.973-0.052,20.958,0.033c2.334,0.029,3.382-0.369,3.586-3.197c0.4-5.522,4.173-8.561,9.236-8.271
	c4.667,0.268,8.06,3.75,8.176,8.393c0.122,4.907-3.292,8.785-8.644,9.086c-5.471,0.308-10.972,0.068-16.461,0.068
	C34.44,43.535,34.44,43.545,34.44,43.556z"/>
</svg>
