<?xml version="1.0" encoding="utf-8"?>
<!-- Generator: Adobe Illustrator 16.0.0, SVG Export Plug-In . SVG Version: 6.00 Build 0)  -->
<!DOCTYPE svg PUBLIC "-//W3C//DTD SVG 1.1//EN" "http://www.w3.org/Graphics/SVG/1.1/DTD/svg11.dtd">
<svg version="1.1" id="图层_1" xmlns="http://www.w3.org/2000/svg" xmlns:xlink="http://www.w3.org/1999/xlink" x="0px" y="0px"
	 width="100px" height="100px" viewBox="0 0 100 100" enable-background="new 0 0 100 100" xml:space="preserve">
<path fill-rule="evenodd" clip-rule="evenodd" fill="#3C5F81" d="M72.21,37.571c-2.192-0.176-3.501-0.856-5.004-2.389
	c-4.618-4.711-10.356-7.086-17.017-7.045c-5.624,0.047-11.452,2.037-15.395,6.078c-2.24,2.298-4.579,3.218-7.667,3.606
	c-9.449,1.185-15.472,9.47-14.088,18.926c1.274,8.708,9.438,14.859,18.462,13.594c2.47-0.347,4.368-0.072,6.519,1.241
	c8.266,5.045,16.701,4.951,24.986-0.009c1.78-1.066,3.316-1.698,5.519-1.397c10.106,1.383,18.502-4.776,19.437-14.008
	C88.962,46.273,82.429,38.389,72.21,37.571z M80.308,61.472c-3.209,3.71-7.281,5.13-12.041,3.511
	c-2.704-0.92-4.404-0.305-6.512,1.328c-7.137,5.533-15.893,5.433-22.949-0.23c-1.815-1.456-3.618-2.079-5.59-1.209
	c-4.705,2.076-9.142,0.556-12.55-3.343c-3.305-3.781-3.795-8.103-1.586-12.509c2.311-4.609,6.292-6.642,11.642-6.34
	c2.854,0.113,3.902-0.642,5.457-2.512C44,30.762,56.838,30.671,64.672,40.11c1.792,2.159,3.24,3.015,6.142,2.661
	c4.912-0.601,8.757,1.77,10.989,6.172C84.033,53.341,83.572,57.696,80.308,61.472z"/>
</svg>
