<?xml version="1.0" encoding="utf-8"?>
<!-- Generator: Adobe Illustrator 16.0.0, SVG Export Plug-In . SVG Version: 6.00 Build 0)  -->
<!DOCTYPE svg PUBLIC "-//W3C//DTD SVG 1.1//EN" "http://www.w3.org/Graphics/SVG/1.1/DTD/svg11.dtd">
<svg version="1.1" id="图层_1" xmlns="http://www.w3.org/2000/svg" xmlns:xlink="http://www.w3.org/1999/xlink" x="0px" y="0px"
	 width="100px" height="100px" viewBox="0 0 100 100" enable-background="new 0 0 100 100" xml:space="preserve">
<path fill="#3D6081" d="M22.417,49.458c0,4.987,0.026,11.244,0.197,16.222c0.091,2.654-0.867,3.387-3.447,3.398
	c-2.614,0.014-3.434-0.764-3.388-3.398c0.15-8.494,0.007-16.993,0.102-25.487c0.016-1.428-0.104-3.776,1.636-3.965
	c2.093-0.228,4.186-0.475,5.693,1.896c3.559,5.6,8.188,12.157,12.374,18.375c-0.125-5.667-0.481-10.873-0.417-15.334
	c0.033-2.255-0.778-5.039,3.542-5.127c4.221-0.087,3.439,2.502,3.444,4.895c0.016,7.663,0.114,15.331-0.079,22.988
	C42.032,65.584,42.2,68.91,40,69.08c-3.792,0.292-3.917,0.02-6.037-3.102c-3.51-5.162-6.873-10.438-10.349-15.633
	C23.25,49.688,22.583,48.875,22.417,49.458z M44.286,70.654c3.735-11.368,7.038-22.675,11.073-33.729
	c0.39-1.067,0.765-1.936,0.765-1.936s3.251-0.032,4.997-0.032c-3.835,11.627-7.67,22.749-11.19,33.97
	c-0.252,0.806-0.556,1.636-0.556,1.636S47.292,70.668,44.286,70.654z M80.771,38.854c-0.804-2.414-2.293-2.759-4.483-2.762
	c-2.039-0.002-3.46,0.366-4.192,2.512c-3.365,9.854-6.813,19.681-10.441,30.123c3.035,0.15,7.201,0.147,7.201,0.147
	s0.484-1.249,1.187-3.228c0.383-1.08,1.286-3.242,1.286-3.242s3.07-0.146,4.462-0.149c2.291-0.004,5.69-0.131,5.69-0.131
	s0.479,1.205,0.877,2.313c0.74,2.061,1.789,4.562,1.789,4.562s3.979-0.146,6.879-0.321C87.532,58.568,84.063,48.741,80.771,38.854z
	 M75.622,56.891c-1.11,0.07-3.205,0.006-3.205,0.006s0.556-1.748,0.954-2.887c0.971-2.766,1.781-5.586,3.004-9.472
	c1.379,4.568,2.432,8.049,3.725,12.336C78.227,56.874,76.919,56.805,75.622,56.891z"/>
</svg>
