<?xml version="1.0" encoding="utf-8"?>
<!-- Generator: Adobe Illustrator 16.0.0, SVG Export Plug-In . SVG Version: 6.00 Build 0)  -->
<!DOCTYPE svg PUBLIC "-//W3C//DTD SVG 1.1//EN" "http://www.w3.org/Graphics/SVG/1.1/DTD/svg11.dtd">
<svg version="1.1" id="图层_1" xmlns="http://www.w3.org/2000/svg" xmlns:xlink="http://www.w3.org/1999/xlink" x="0px" y="0px"
	 width="100px" height="100px" viewBox="0 0 100 100" enable-background="new 0 0 100 100" xml:space="preserve">
<path fill="#456687" d="M50.512,66.382c8.147-0.001,16.297-0.007,24.444,0.002c2.206,0.003,4.782-0.056,4.903,2.892
	c0.138,3.308-2.57,3.324-4.979,3.324c-16.463,0.004-32.926,0.004-49.389-0.004c-2.241-0.002-4.622-0.052-4.604-3.154
	c0.019-3.155,2.492-3.041,4.678-3.049C33.881,66.368,42.196,66.383,50.512,66.382z M49.978,60.855
	c-7.984,0-15.969,0.014-23.954-0.008c-2.325-0.006-5.1,0.291-5.101-3.142c-0.001-3.384,2.852-3.263,5.115-3.271
	c16.301-0.065,32.603-0.058,48.905-0.011c2.363,0.007,5.117,0.211,4.896,3.495c-0.19,2.805-2.62,2.955-4.909,2.946
	C66.611,60.838,58.295,60.855,49.978,60.855z M50.397,37.156c-8.145,0-16.291,0.01-24.436-0.007
	c-2.331-0.004-5.106,0.284-5.021-3.179c0.086-3.48,2.933-2.961,5.205-2.964c16.125-0.019,32.25-0.012,48.375-0.008
	c2.321,0,5.222-0.354,5.31,2.925c0.101,3.714-3.062,3.208-5.494,3.219C66.355,37.178,58.377,37.156,50.397,37.156z M51.018,42.834
	c7.979-0.001,15.957,0.009,23.935-0.007c2.228-0.004,4.764-0.073,4.901,2.855c0.153,3.301-2.502,3.321-4.941,3.319
	C58.457,48.987,42.003,48.988,25.548,49c-2.279,0.002-4.622-0.069-4.617-3.122c0.005-3.104,2.426-3.046,4.657-3.045
	C34.065,42.836,42.542,42.834,51.018,42.834z"/>
</svg>
