<?xml version="1.0" encoding="utf-8"?>
<!-- Generator: Adobe Illustrator 16.0.0, SVG Export Plug-In . SVG Version: 6.00 Build 0)  -->
<!DOCTYPE svg PUBLIC "-//W3C//DTD SVG 1.1//EN" "http://www.w3.org/Graphics/SVG/1.1/DTD/svg11.dtd">
<svg version="1.1" id="图层_1" xmlns="http://www.w3.org/2000/svg" xmlns:xlink="http://www.w3.org/1999/xlink" x="0px" y="0px"
	 width="100px" height="100px" viewBox="0 0 100 100" enable-background="new 0 0 100 100" xml:space="preserve">
<path fill="#3C5F81" d="M74.127,23.684c-3.396-0.181-2.951,0.382-5.538-2.435c-4.496-4.896-10.339-7.047-17.659-7.14
	c-5.682,0.274-11.356,2.304-15.78,7.063c-1.877,2.021-2.119,2.348-5.541,2.523c-9.371,0.48-16.343,8.716-15.437,17.867
	c0.933,9.42,9.563,16.365,18.922,14.81c3.495-0.578,3.126-0.646,6.386,1.31c8.109,4.854,16.444,4.92,24.534,0.057
	c4.016-2.414,2.582-1.971,6.873-1.312c9.303,1.431,17.68-5.631,18.541-15.238C90.223,32.316,83.21,24.167,74.127,23.684z
	 M81.523,47.612c-3.396,3.763-7.746,5.308-12.616,3.117c-2.207-0.994-3.416-0.524-5.169,0.939
	c-7.596,6.354-16.263,6.316-24.052-0.074c-1.593-1.307-2.653-1.879-4.71-0.941c-5.077,2.314-9.462,0.681-13.005-3.262
	c-3.369-3.748-3.749-8.166-1.511-12.534c2.339-4.565,6.352-6.619,11.668-6.287c2.748,0.224,4.829-1.745,5.19-2.204
	c7.551-9.607,20.972-9.678,28.868-0.107c1.676,2.031,3.012,2.803,5.703,2.436c5.176-0.707,9.069,1.747,11.328,6.387
	C85.385,39.534,84.832,43.947,81.523,47.612z M52.129,67.482c1.98,3.77,3.596,6.309,4.674,9.058
	c0.912,2.325,0.387,4.678-1.986,6.087c-1.842,1.094-3.846,1.139-5.629-0.123c-2.167-1.531-2.855-3.751-1.778-6.148
	C48.608,73.682,50.148,71.158,52.129,67.482z"/>
</svg>
