<?xml version="1.0" encoding="utf-8"?>
<!-- Generator: Adobe Illustrator 16.0.0, SVG Export Plug-In . SVG Version: 6.00 Build 0)  -->
<!DOCTYPE svg PUBLIC "-//W3C//DTD SVG 1.1//EN" "http://www.w3.org/Graphics/SVG/1.1/DTD/svg11.dtd">
<svg version="1.1" id="图层_1" xmlns="http://www.w3.org/2000/svg" xmlns:xlink="http://www.w3.org/1999/xlink" x="0px" y="0px"
	 width="100px" height="100px" viewBox="0 0 100 100" enable-background="new 0 0 100 100" xml:space="preserve">
<path fill="#3C5F81" d="M61.521,75.639c1.469,1.704,2.738,2.893,1.227,4.584c-0.577,0.646-1.355,0.846-2.07,0.057
	C59.105,78.54,60.779,77.37,61.521,75.639z M31.363,74.012c1.143,1.271,2.508,2.418,0.826,4.182
	c-0.545,0.572-1.167,0.623-1.697,0.027C28.959,76.488,29.971,75.247,31.363,74.012z M41.437,75.912
	c1.106,1.275,2.492,2.414,0.83,4.164c-0.536,0.564-1.145,0.607-1.675,0.025C39.014,78.368,40.243,77.18,41.437,75.912z
	 M51.441,77.584c1.623,1.787,2.377,2.977,0.928,4.402c-0.549,0.541-1.104,0.623-1.669,0.054
	C48.908,80.238,50.77,79.199,51.441,77.584z M73.127,34.017c-3.396-0.181-2.951,0.382-5.538-2.435
	c-4.496-4.896-10.339-7.047-17.659-7.14c-5.683,0.274-11.358,2.304-15.781,7.063c-1.877,2.021-2.119,2.348-5.541,2.523
	c-9.371,0.48-16.343,8.716-15.437,17.867c0.933,9.422,9.563,16.364,18.922,14.812c3.495-0.579,3.126-0.646,6.386,1.308
	c8.109,4.855,16.444,4.922,24.535,0.059c4.016-2.414,2.58-1.971,6.871-1.313c9.305,1.43,17.68-5.63,18.542-15.236
	C89.223,42.65,82.21,34.5,73.127,34.017z M80.523,57.945c-3.396,3.763-7.746,5.309-12.616,3.117
	c-2.207-0.994-3.416-0.526-5.169,0.938c-7.596,6.353-16.263,6.315-24.052-0.074c-1.593-1.307-2.653-1.88-4.71-0.94
	c-5.077,2.313-9.462,0.68-13.005-3.264c-3.369-3.748-3.749-8.167-1.511-12.535c2.339-4.565,6.352-6.619,11.668-6.287
	c2.748,0.224,4.829-1.745,5.19-2.204c7.551-9.607,20.972-9.678,28.868-0.107c1.676,2.031,3.012,2.803,5.703,2.436
	c5.176-0.707,9.069,1.747,11.328,6.387C84.385,49.867,83.832,54.279,80.523,57.945z M71.896,73.751
	c1.469,1.704,2.738,2.892,1.227,4.584c-0.577,0.646-1.355,0.847-2.07,0.056C69.48,76.652,71.154,75.482,71.896,73.751z"/>
</svg>
