<?xml version="1.0" encoding="utf-8"?>
<!-- Generator: Adobe Illustrator 16.0.0, SVG Export Plug-In . SVG Version: 6.00 Build 0)  -->
<!DOCTYPE svg PUBLIC "-//W3C//DTD SVG 1.1//EN" "http://www.w3.org/Graphics/SVG/1.1/DTD/svg11.dtd">
<svg version="1.1" id="图层_1" xmlns="http://www.w3.org/2000/svg" xmlns:xlink="http://www.w3.org/1999/xlink" x="0px" y="0px"
	 width="100px" height="100px" viewBox="0 0 100 100" enable-background="new 0 0 100 100" xml:space="preserve">
<path fill="#486888" d="M30.969,26.973c-0.071,1.904-1.374,3.066-3.295,2.934c-1.944-0.133-2.871-1.445-2.723-3.364
	c0.133-1.734,1.191-2.643,2.924-2.625C29.86,23.938,31.04,25.092,30.969,26.973z M51.904,29.955
	c-1.933-0.033-3.002-1.317-2.897-3.282c0.091-1.711,1.066-2.722,2.792-2.748c1.918-0.029,3.121,0.993,3.146,2.934
	C54.971,28.809,53.729,29.986,51.904,29.955z M45.521,35.966c0.09,1.82-0.958,3.131-3.026,3.165
	c-1.805,0.029-2.833-1.086-2.959-2.728c-0.149-1.949,1-3.165,2.96-3.214C44.22,33.147,45.434,34.212,45.521,35.966z M18.998,41.522
	c-1.764-0.057-2.834-1.28-2.805-3.005c0.034-1.964,1.247-3.148,3.19-2.977c1.894,0.167,2.959,1.383,2.701,3.428
	C21.852,40.811,20.543,41.572,18.998,41.522z M33.921,66.452c-1.68,0.063-2.917-0.746-3.048-2.625
	c-0.139-2.011,0.817-3.22,2.804-3.322c1.704-0.088,2.91,0.874,3.081,2.589C36.956,65.068,35.831,66.381,33.921,66.452z
	 M61.157,40.18c-0.022,1.758-0.825,2.858-2.648,2.955c-1.991,0.105-3.271-0.917-3.26-2.886c0.013-1.934,1.329-3.077,3.243-3.03
	C60.236,37.26,61.13,38.414,61.157,40.18z M36.883,47.009c0.11,2.044-1.185,3.076-2.977,3.109c-2.048,0.037-3.102-1.024-3.03-3.064
	c0.061-1.744,1.005-2.845,2.782-2.862C35.676,44.172,36.802,45.5,36.883,47.009z M51.85,60.473c1.86-0.106,3.092,1.049,3.11,3.067
	c0.017,1.802-1.187,2.813-2.798,2.88c-1.87,0.077-3.147-0.945-3.15-3.011C49.01,61.587,50.138,60.57,51.85,60.473z M42.344,81.25
	c-1.313,0.104-3.906-0.156-6.781-0.156c2.219,0.969,4.588,1.403,6.494,1.725c1.307,0.226,2.605,0.551,3.921,0.66
	c8.399,0.699,16.614-0.117,24.24-3.91c3.493-1.738,7.179-4.471,5.398-8.846c-1.361-3.347-1.741-2.285,2.104-5.697
	c3.332-2.959,6.022-6.5,3.084-10.754c-2.867-4.151-3.117-2.396,1.461-6.046c7.518-5.993,7.293-13.612-0.377-19.524
	c-4.377-3.373-8.951-5.668-14.64-7.012c-2.656-0.375-2.938-0.5-5.144-0.561c1.666,0.869,1.83,0.967,2.932,1.789
	c1.051,0.807,2.124,1.587,3.152,2.422c7.237,5.885,7.352,12.709,0.229,18.76c-3.188,2.708-6.904,4.515-10.83,5.959
	c-10.757,3.959-21.33,4.81-32.651,4.797c-0.31-0.018-0.891-0.032-1.028-0.049c-0.917-0.158-1.201-0.098-2.716-0.324
	c-1.72-0.205-3.439-0.412-5.159-0.616c-1.976-0.49-3.284-0.282-3.284-0.282l0.836,0.577c0,0,3.123,0.87,1.896,0.579
	c1.598,0.355,2.959,0.791,4.558,1.146c15.776,4.317,31.526,3.815,47.261-0.235c3.333-0.857,4.105-1.088,4.105-1.088
	c0.031,1.095-0.25,2.72-1.618,4.629c-2.242,3.132-5.381,4.931-8.746,6.343c-8.906,3.739-18.309,4.515-27.848,4.271
	c-2.948-0.185-3.361-0.054-6.195,0.031c1.37,0.33,2.739,0.66,4.109,0.989c12.22,3.219,24.434,2.651,36.982-0.589
	c-1.074,4.39-4.039,6.162-7.203,7.603c-4.402,2.005-9.137,2.789-13.91,3.33 M41.171,80.266c-1.68,0.063-2.917-0.746-3.048-2.625
	c-0.139-2.012,0.817-3.22,2.804-3.322c1.704-0.088,2.91,0.873,3.081,2.589C44.206,78.881,43.081,80.193,41.171,80.266z"/>
</svg>
