<?xml version="1.0" encoding="utf-8"?>
<!-- Generator: Adobe Illustrator 16.0.0, SVG Export Plug-In . SVG Version: 6.00 Build 0)  -->
<!DOCTYPE svg PUBLIC "-//W3C//DTD SVG 1.1//EN" "http://www.w3.org/Graphics/SVG/1.1/DTD/svg11.dtd">
<svg version="1.1" id="图层_1" xmlns="http://www.w3.org/2000/svg" xmlns:xlink="http://www.w3.org/1999/xlink" x="0px" y="0px"
	 width="100px" height="100px" viewBox="0 0 100 100" enable-background="new 0 0 100 100" xml:space="preserve">
<path fill="#436485" d="M31.342,32.831c-2.521-0.034-8.027-5.621-7.823-7.781c0.176-1.859,1.187-3.048,3.215-3.049
	c2.33-0.001,7.491,5.42,7.427,7.759C34.105,31.799,32.993,32.718,31.342,32.831z M49.964,17c-0.002-1.162-0.079-2.001,0.078-3.142
	c0.264-1.909,1.465-2.796,3.414-2.796c3.168,0,3.058,3.767,3.112,6.303c0.059,2.6,0.369,6.366-3.117,6.321
	c-1.854-0.024-3.135-0.968-3.404-2.865C49.886,19.682,49.966,18.162,49.964,17z M18.563,55.25c-1.319-0.006-2.639,0.004-3.875-0.375
	c-1.226-0.376-2.313-1.125-2.313-3.563c0-3.012,4.155-2.831,6.75-2.988c2.295-0.141,5.948,0.282,5.945,3.05
	c-0.003,2.231-0.68,3.177-2.592,3.502C21.355,55.068,19.717,55.256,18.563,55.25z M49.625,86.168c0-1.314,0.114-2.717,0.375-3.979
	c0.4-1.936,1.451-2.19,3.33-2.219c3.336-0.049,3.115,3.528,3.293,6.12c0.16,2.339,0.029,5.866-3.123,6.245
	c-1.811,0.217-3.476-0.729-3.708-2.71c-0.133-1.137-0.063-0.625-0.167-2.563C49.624,87.045,49.606,86.168,49.625,86.168z
	 M34.148,73.859c-0.007,2.326-4.945,7.533-7.578,7.547c-2.007,0.011-3.018-1.264-3.054-3.225c-0.037-1.994,5.764-7.742,7.686-7.562
	C33.087,70.799,34.132,71.907,34.148,73.859z M66.887,29.861c-7.22-0.278-4.595,1.139-13-0.026
	c-13.555,0.022-23.665,10.836-22.721,23.39c0.969,12.887,12.78,22.283,25.342,20.1c2.004-0.348,0.534-0.865,5.92,0.046
	c12.512,2.116,24.037-6.99,25.344-20.156C88.949,41.323,79.01,30.328,66.887,29.861z M37.5,50.5C37.917,44.411,44.125,37,50.708,37
	c-10.458,8.75-8.875,21.917,0.625,29.25C42,65.125,37.008,57.693,37.5,50.5z"/>
</svg>
