<?xml version="1.0" encoding="utf-8"?>
<!-- Generator: Adobe Illustrator 16.0.0, SVG Export Plug-In . SVG Version: 6.00 Build 0)  -->
<!DOCTYPE svg PUBLIC "-//W3C//DTD SVG 1.1//EN" "http://www.w3.org/Graphics/SVG/1.1/DTD/svg11.dtd">
<svg version="1.1" id="图层_1" xmlns="http://www.w3.org/2000/svg" xmlns:xlink="http://www.w3.org/1999/xlink" x="0px" y="0px"
	 width="100px" height="100px" viewBox="0 0 100 100" enable-background="new 0 0 100 100" xml:space="preserve">
<path fill="#3C5F81" d="M74.127,23.684c-3.396-0.181-2.951,0.382-5.538-2.435c-4.496-4.896-10.339-7.047-17.659-7.14
	c-5.682,0.274-11.356,2.304-15.78,7.063c-1.877,2.021-2.119,2.348-5.541,2.523c-9.371,0.48-16.343,8.716-15.437,17.867
	c0.933,9.42,9.563,16.365,18.922,14.81c3.495-0.578,3.126-0.646,6.386,1.31c8.109,4.854,16.444,4.92,24.534,0.057
	c4.016-2.414,2.582-1.971,6.873-1.312c9.303,1.431,17.68-5.631,18.541-15.238C90.223,32.316,83.21,24.167,74.127,23.684z
	 M81.523,47.612c-3.396,3.763-7.746,5.308-12.616,3.117c-2.207-0.994-3.416-0.524-5.169,0.939
	c-7.596,6.354-16.263,6.316-24.052-0.074c-1.593-1.307-2.653-1.879-4.71-0.941c-5.077,2.314-9.462,0.681-13.005-3.262
	c-3.369-3.748-3.749-8.166-1.511-12.534c2.339-4.565,6.352-6.619,11.668-6.287c2.748,0.224,4.829-1.745,5.19-2.204
	c7.551-9.607,20.972-9.678,28.868-0.107c1.676,2.031,3.012,2.803,5.703,2.436c5.176-0.707,9.069,1.747,11.328,6.387
	C85.385,39.534,84.832,43.947,81.523,47.612z M31.419,78.033c-0.602-1.02-3.912,0.173-3.916-1.829
	c-0.005-2.248,3.733-0.302,4.123-1.331c0.334-0.882-2.735-3.033-0.847-4.189c1.946-1.193,2.661,2.943,3.595,3.021
	c0.827,0.068,0.949-2.225,1.471-2.867c0.43-0.529,1.026-0.773,1.782-0.439c0.632,0.279,0.937,1.424,0.395,2.194
	c-1.927,2.747-0.976,2.399,1.38,2.274c0.717-0.038,1.838,0.445,1.845,1.38c0.01,1.214-1.053,1.534-2.154,1.42
	c-1.614-0.168-2.621-0.51-1.289,2.019c0.375,0.713,0.625,1.875-0.383,2.311c-1.127,0.486-1.949-0.631-2.245-1.555
	c-0.435-1.354-1.047-1.209-1.671-0.187c-0.643,1.056-1.604,2.636-2.931,1.535C29.23,80.678,32.069,79.132,31.419,78.033z
	 M62.779,78.032c-0.602-1.019-3.911,0.174-3.918-1.829c-0.004-2.247,3.734-0.301,4.125-1.33c0.334-0.883-2.735-3.033-0.848-4.189
	c1.945-1.193,2.662,2.943,3.596,3.021c0.826,0.068,0.947-2.225,1.47-2.866c0.433-0.528,1.026-0.774,1.782-0.438
	c0.632,0.279,0.937,1.423,0.396,2.193c-1.928,2.747-0.975,2.399,1.379,2.274c0.718-0.039,1.841,0.444,1.847,1.38
	c0.01,1.214-1.053,1.533-2.152,1.42c-1.615-0.168-2.621-0.51-1.291,2.018c0.375,0.713,0.625,1.877-0.383,2.312
	c-1.127,0.487-1.949-0.631-2.244-1.554c-0.436-1.354-1.047-1.211-1.672-0.188c-0.643,1.057-1.604,2.635-2.932,1.535
	C60.591,80.678,63.43,79.131,62.779,78.032z M24.964,71.621c0.116,2.363-1.034,4.061-3.064,5.027
	c-2.129,1.012-4.148,0.759-5.909-0.73c-1.646-1.395-2.244-3.378-1.706-5.383c0.834-3.105,2.684-5.701,4.325-8.395
	c0.443-0.729,0.986-1.233,1.627-0.213C22.192,65.046,24.786,68.021,24.964,71.621z M55.712,83.479
	c0.118,2.364-1.034,4.062-3.063,5.027c-2.129,1.014-4.147,0.76-5.908-0.729c-1.645-1.395-2.244-3.379-1.706-5.385
	c0.833-3.104,2.684-5.701,4.325-8.395c0.443-0.729,0.986-1.232,1.627-0.212C52.939,76.904,55.534,79.881,55.712,83.479z
	 M85.926,72.109c0.118,2.363-1.031,4.061-3.063,5.026c-2.129,1.013-4.147,0.759-5.909-0.729c-1.646-1.395-2.244-3.379-1.705-5.383
	c0.832-3.106,2.685-5.701,4.325-8.396c0.443-0.728,0.986-1.233,1.628-0.212C83.154,65.534,85.75,68.511,85.926,72.109z"/>
</svg>
