<?xml version="1.0" encoding="utf-8"?>
<!-- Generator: Adobe Illustrator 16.0.0, SVG Export Plug-In . SVG Version: 6.00 Build 0)  -->
<!DOCTYPE svg PUBLIC "-//W3C//DTD SVG 1.1//EN" "http://www.w3.org/Graphics/SVG/1.1/DTD/svg11.dtd">
<svg version="1.1" id="图层_1" xmlns="http://www.w3.org/2000/svg" xmlns:xlink="http://www.w3.org/1999/xlink" x="0px" y="0px"
	 width="100px" height="100px" viewBox="0 0 100 100" enable-background="new 0 0 100 100" xml:space="preserve">
<path fill="#3E6182" d="M33.218,42.843c-2.931,0-5.086-0.017-7.242,0.006c-1.597,0.017-3.227-0.146-3.312-2.132
	c-0.097-2.271,1.647-2.569,3.439-2.57c2.124-0.002,4.247-0.001,7.1-0.001c-1.544-2.738-2.811-4.834-3.924-7.01
	c-0.646-1.262-0.763-2.635,0.753-3.456c1.551-0.84,2.483,0.119,3.232,1.334c1.295,2.104,2.57,4.219,4.062,6.673
	c1.141-1.905,1.989-3.47,2.982-4.938c1.034-1.528,1.646-4.338,4.232-3.007c2.741,1.41,0.628,3.4-0.182,5.064
	c-0.774,1.593-1.657,3.133-2.862,5.387c3.226,0,5.677-0.053,8.125,0.021c1.268,0.039,2.286,0.67,2.4,2.063
	c0.14,1.693-0.975,2.431-2.45,2.491c-2.441,0.1-5.943,0.021-8.489,0.021c1.542,2.583,2.918,4.354,3.798,6.263
	c0.708,1.538,1.788,3.188-0.315,4.3c-2.111,1.116-2.882-0.795-3.739-2.18c-1.047-1.691-2.288-3.632-3.48-5.634
	c-1.422,1.987-2.396,4.041-3.657,5.843c-0.914,1.307-1.715,3.253-3.826,1.832c-1.619-1.09-1.023-2.574-0.233-3.962
	C30.688,47.397,31.72,45.524,33.218,42.843z M77.473,71.1c0.184,3.709-1.621,6.369-4.807,7.887c-3.341,1.59-6.509,1.191-9.27-1.146
	c-2.582-2.186-3.521-5.298-2.678-8.443c1.309-4.873,4.211-8.943,6.786-13.17c0.695-1.143,1.547-1.937,2.554-0.332
	C73.125,60.783,77.193,65.453,77.473,71.1z M32.498,77.959c-0.997-0.136-1.317-1.115-1.215-1.68
	c0.141-0.778,0.748-1.481,1.311-2.047C46.208,60.581,59.843,46.948,73.49,33.327c0.912-0.911,2.354-1.921,3.251-0.692
	c1.053,1.444-0.462,2.691-1.532,3.761C66.27,45.32,57.346,54.261,48.415,63.195c-4.23,4.23-8.45,8.474-12.706,12.68
	C34.795,76.779,34.077,78.057,32.498,77.959z"/>
</svg>
