<?xml version="1.0" encoding="utf-8"?>
<!-- Generator: Adobe Illustrator 16.0.0, SVG Export Plug-In . SVG Version: 6.00 Build 0)  -->
<!DOCTYPE svg PUBLIC "-//W3C//DTD SVG 1.1//EN" "http://www.w3.org/Graphics/SVG/1.1/DTD/svg11.dtd">
<svg version="1.1" id="图层_1" xmlns="http://www.w3.org/2000/svg" xmlns:xlink="http://www.w3.org/1999/xlink" x="0px" y="0px"
	 width="100px" height="100px" viewBox="0 0 100 100" enable-background="new 0 0 100 100" xml:space="preserve">
<path fill="#406283" d="M47,86.813c-0.823-1.392-5.338,0.235-5.344-2.496c-0.006-3.066,5.094-0.409,5.625-1.815
	c0.455-1.203-3.73-4.138-1.156-5.716c2.656-1.628,3.631,4.017,4.906,4.122c1.128,0.094,1.295-3.034,2.007-3.91
	c0.587-0.724,1.399-1.06,2.431-0.601c0.863,0.383,1.277,1.941,0.538,2.994c-2.63,3.746-1.33,3.273,1.884,3.103
	c0.978-0.054,2.506,0.608,2.517,1.884c0.014,1.656-1.438,2.094-2.938,1.938c-2.203-0.229-3.574-0.696-1.76,2.752
	c0.512,0.973,0.854,2.561-0.521,3.154c-1.539,0.664-2.658-0.861-3.063-2.123c-0.593-1.847-1.43-1.648-2.28-0.252
	c-0.877,1.438-2.188,3.594-4,2.094C44.013,90.422,47.886,88.311,47,86.813z M18.074,38.785c1.923,0.088,4.541-0.098,4.54,2.397
	c0,2.932-2.746,2.705-4.911,2.7c-2.009-0.005-4.454,0.243-4.542-2.524C13.079,38.787,16.028,38.923,18.074,38.785z M41.087,15.565
	c-0.093-2.159-0.05-4.614,2.637-4.614c2.609,0,2.321,2.86,2.398,4.799c0.068,1.703,0.016,4.304-2.245,4.299
	C41.062,20.043,41.163,17.32,41.087,15.565z M66.021,41.057c-0.84-0.078-1.57-0.853-1.771-1.328
	c-0.623-1.478,0.023-3.421,2.441-3.725c2.256-0.282,5.519-0.887,6.703,0.648c0.959,1.243,0.922,3.561-1.41,4.064
	C70.061,41.131,68.006,41.24,66.021,41.057z M29.033,24.042c0.351,1.837-1.001,3.146-2.533,2.792
	c-1.708-0.396-4.745-3.419-4.938-5.208c-0.128-1.19,0.919-2.472,2.604-2.396C26.458,19.333,28.704,22.318,29.033,24.042z
	 M60.375,27.125c-1.689-0.108-2.24-1.099-1.975-2.507c0.453-2.389,1.509-4.065,4.203-5.347c1.461-0.694,3.097,0.482,3.084,1.729
	C65.657,24.049,62.016,27.229,60.375,27.125z M73.701,48.36c-3.571-0.294-5.027-1.995-7.742-3.943
	c-0.701-0.503-0.354-0.327-1.959-1.333c-2.043-1.28-3.452-1.504-4.15-4.684c-2.195-9.983-10.664-15.381-20.023-13.261
	c-8.787,1.989-13.928,10.204-12.121,19.853c0.439,2.346-0.073,3.138-2.253,3.882c-9.078,3.101-13.903,10.796-12.16,19.006
	c1.909,8.997,9.417,14.097,19.434,13.039c1.712-0.18,3.063-0.287,4.558,0.948c1.03,0.852,2.169,0.904,3.342-0.461
	c1.087-1.266,1.063-2.156-0.362-3.719C39.214,76.538,35.219,75.531,33,76c-4.739,1.001-9.182-0.074-12.416-4.163
	c-3.064-3.873-3.589-8.274-1.101-12.599c2.08-3.613,6.33-6.957,10.736-6.863c1.791,0.038,3.905-0.911,5.375-2.563
	c4.563-5.125,18.592-9.415,25.313-3.094c3.856,3.628,7.556,6.974,13.716,7.156c6.438,0.192,9.999,7.746,8.259,14.033
	c-1.688,6.099-8.455,9.853-14.565,7.583c-1.658-0.616-5.252,0.32-7.285,2.312c-1.127,1.103-1.287,2.646-0.623,3.666
	c0.656,1.009,2.719,1.438,3.656,0.531c2.973-2.874,4.781-1.095,6.897-0.872c8.706,0.911,16.334-5.913,17.129-14.078
	C89.041,57.271,83.08,49.134,73.701,48.36z M33.364,45.697c-2.67-6.465,0.121-13.11,6.435-15.32
	c6.625-2.32,13.094,1.744,14.951,8.904C44.344,39.094,43.291,39.122,33.364,45.697z"/>
</svg>
