<?xml version="1.0" encoding="utf-8"?>
<!-- Generator: Adobe Illustrator 16.0.0, SVG Export Plug-In . SVG Version: 6.00 Build 0)  -->
<!DOCTYPE svg PUBLIC "-//W3C//DTD SVG 1.1//EN" "http://www.w3.org/Graphics/SVG/1.1/DTD/svg11.dtd">
<svg version="1.1" id="图层_1" xmlns="http://www.w3.org/2000/svg" xmlns:xlink="http://www.w3.org/1999/xlink" x="0px" y="0px"
	 width="100px" height="100px" viewBox="0 0 100 100" enable-background="new 0 0 100 100" xml:space="preserve">
<path fill="#3F6283" d="M36.128,80.148c1.981,3.771,3.596,6.31,4.674,9.059c0.912,2.325,0.386,4.678-1.986,6.087
	c-1.843,1.095-3.846,1.138-5.631-0.123c-2.167-1.53-2.855-3.751-1.778-6.149C32.608,86.348,34.149,83.825,36.128,80.148z
	 M73.632,42.503c-3.507-0.441-3.944,0.715-6.291-2.287c-0.528-0.467-1.303-1.421-2.341-2.203c-5.969-4.545-4.703-2.311-5.493-5.836
	c-2.177-9.73-10.649-14.981-19.742-12.981c-8.992,1.977-14.159,10.283-12.296,20.222c0.387,2.065,0.284,2.768-1.875,3.469
	c-9.549,3.103-14.137,10.339-12.492,19.207c1.59,8.569,9.039,13.742,18.977,12.904c3.35-0.282,2.833-0.546,6.019,1.426
	c7.518,4.652,15.419,5.037,23.179,0.797c6.369-3.482,3.805-2.486,9.33-2.17c9.215,0.529,16.509-5.673,17.348-14.223
	C88.868,51.506,82.994,43.681,73.632,42.503z M40.852,24.104c6.185-1.449,11.839,2.23,13.351,9.029
	c-7.375-0.877-13.907,0.973-19.519,5.792c-2.349,2.017-2.345-0.33-2.618-1.607C30.841,31.596,34.944,25.487,40.852,24.104z
	 M80.957,65.41c-3.037,4.199-7.376,6.021-12.241,4.41c-3.168-1.049-5.044-0.332-7.463,1.533c-5.593,4.313-11.936,5.004-18.306,1.976
	c-6.478-3.079-6.041-3.829-12.996-2.994c-7.452-0.094-12.569-5.774-12.042-12.528c0.497-6.367,6.463-11.509,12.753-10.356
	c2.694,0.494,3.775-0.365,5.256-2.217c7.897-9.876,21.287-9.826,29.155,0.061c1.306,1.642,2.2,2.77,4.8,2.218
	c5.111-1.085,9.127,1.296,11.68,5.694C83.918,57.279,83.762,61.534,80.957,65.41z M17.527,32.397
	c1.923,0.088,4.541-0.098,4.54,2.396c0,2.933-2.746,2.705-4.911,2.701c-2.009-0.006-4.454,0.242-4.542-2.525
	C12.532,32.399,15.481,32.535,17.527,32.397z M40.541,9.178c-0.093-2.159-0.05-4.614,2.637-4.614c2.609,0,2.321,2.86,2.398,4.799
	c0.068,1.703,0.016,4.304-2.244,4.299C40.515,13.656,40.616,10.932,40.541,9.178z M65.475,34.669
	c-0.841-0.077-1.57-0.852-1.771-1.327c-0.623-1.478,0.023-3.421,2.441-3.725c2.256-0.282,5.519-0.888,6.703,0.648
	c0.959,1.243,0.922,3.562-1.41,4.063C69.514,34.743,67.459,34.853,65.475,34.669z M28.486,17.654
	c0.351,1.837-1.001,3.146-2.533,2.792c-1.708-0.396-4.745-3.419-4.938-5.208c-0.128-1.19,0.919-2.472,2.604-2.396
	C25.912,12.946,28.157,15.931,28.486,17.654z M59.828,20.737c-1.689-0.108-2.24-1.099-1.975-2.507
	c0.453-2.389,1.508-4.065,4.203-5.347c1.461-0.694,3.096,0.482,3.084,1.729C65.109,17.661,61.468,20.842,59.828,20.737z
	 M59.645,90.369c-0.672-1.139-4.367,0.193-4.373-2.042c-0.006-2.511,4.168-0.335,4.604-1.485c0.373-0.984-3.055-3.387-0.945-4.678
	c2.174-1.333,2.971,3.286,4.014,3.373c0.924,0.076,1.061-2.482,1.643-3.2c0.48-0.591,1.146-0.864,1.989-0.491
	c0.706,0.313,1.046,1.59,0.44,2.45c-2.152,3.065-1.09,2.679,1.541,2.539c0.801-0.043,2.051,0.497,2.06,1.541
	c0.011,1.354-1.177,1.712-2.404,1.585c-1.802-0.188-2.926-0.568-1.438,2.252c0.418,0.796,0.697,2.096-0.428,2.58
	c-1.26,0.544-2.177-0.704-2.507-1.734c-0.485-1.513-1.169-1.352-1.866-0.209c-0.718,1.18-1.789,2.942-3.271,1.715
	C57.199,93.322,60.369,91.596,59.645,90.369z"/>
</svg>
