<?xml version="1.0" encoding="utf-8"?>
<!-- Generator: Adobe Illustrator 16.0.0, SVG Export Plug-In . SVG Version: 6.00 Build 0)  -->
<!DOCTYPE svg PUBLIC "-//W3C//DTD SVG 1.1//EN" "http://www.w3.org/Graphics/SVG/1.1/DTD/svg11.dtd">
<svg version="1.1" id="图层_1" xmlns="http://www.w3.org/2000/svg" xmlns:xlink="http://www.w3.org/1999/xlink" x="0px" y="0px"
	 width="100px" height="100px" viewBox="0 0 100 100" enable-background="new 0 0 100 100" xml:space="preserve">
<path fill="#3C5F81" d="M74.127,23.684c-3.396-0.181-2.951,0.382-5.538-2.435c-4.496-4.896-10.339-7.047-17.659-7.14
	c-5.682,0.274-11.356,2.304-15.78,7.063c-1.877,2.021-2.119,2.348-5.541,2.523c-9.371,0.48-16.343,8.716-15.437,17.867
	c0.933,9.42,9.563,16.365,18.922,14.81c3.495-0.578,3.126-0.646,6.386,1.31c8.109,4.854,16.444,4.92,24.534,0.057
	c4.016-2.414,2.582-1.971,6.873-1.312c9.303,1.431,17.68-5.631,18.541-15.238C90.223,32.316,83.21,24.167,74.127,23.684z
	 M81.523,47.612c-3.396,3.763-7.746,5.308-12.616,3.117c-2.207-0.994-3.416-0.524-5.169,0.939
	c-7.596,6.354-16.263,6.316-24.052-0.074c-1.593-1.307-2.653-1.879-4.71-0.941c-5.077,2.314-9.462,0.681-13.005-3.262
	c-3.369-3.748-3.749-8.166-1.511-12.534c2.339-4.565,6.352-6.619,11.668-6.287c2.748,0.224,4.829-1.745,5.19-2.204
	c7.551-9.607,20.972-9.678,28.868-0.107c1.676,2.031,3.012,2.803,5.703,2.436c5.176-0.707,9.069,1.747,11.328,6.387
	C85.385,39.534,84.832,43.947,81.523,47.612z M48.491,84.036c-0.672-1.138-4.367,0.192-4.372-2.042
	c-0.006-2.51,4.168-0.335,4.603-1.485c0.373-0.985-3.054-3.387-0.945-4.678c2.173-1.333,2.971,3.286,4.014,3.373
	c0.923,0.075,1.061-2.483,1.643-3.2c0.479-0.591,1.146-0.865,1.988-0.49c0.706,0.313,1.046,1.588,0.439,2.449
	c-2.15,3.066-1.088,2.68,1.541,2.539c0.802-0.043,2.053,0.497,2.061,1.541c0.012,1.354-1.176,1.712-2.404,1.585
	c-1.802-0.188-2.926-0.569-1.438,2.252c0.418,0.796,0.698,2.095-0.429,2.58c-1.258,0.544-2.176-0.704-2.506-1.733
	c-0.484-1.514-1.168-1.353-1.865-0.209c-0.718,1.178-1.791,2.941-3.272,1.713C46.047,86.989,49.217,85.264,48.491,84.036z
	 M26.31,72.202c-0.672-1.138-4.367,0.192-4.372-2.042c-0.006-2.51,4.168-0.335,4.603-1.485c0.373-0.985-3.054-3.387-0.945-4.678
	c2.173-1.333,2.971,3.286,4.014,3.373c0.923,0.075,1.06-2.483,1.642-3.2c0.48-0.591,1.146-0.865,1.989-0.49
	c0.706,0.313,1.046,1.588,0.44,2.449c-2.151,3.066-1.089,2.68,1.541,2.539c0.801-0.043,2.052,0.497,2.06,1.541
	c0.011,1.354-1.176,1.712-2.404,1.585c-1.802-0.188-2.926-0.569-1.439,2.252c0.418,0.796,0.698,2.095-0.428,2.58
	c-1.259,0.544-2.176-0.704-2.506-1.733c-0.485-1.514-1.169-1.353-1.866-0.209c-0.718,1.178-1.79,2.941-3.272,1.713
	C23.866,75.154,27.036,73.43,26.31,72.202z M71.134,72.202c-0.672-1.138-4.366,0.192-4.372-2.042
	c-0.006-2.51,4.168-0.335,4.604-1.485c0.373-0.985-3.055-3.387-0.945-4.678c2.173-1.333,2.971,3.286,4.014,3.373
	c0.924,0.075,1.061-2.483,1.643-3.2c0.48-0.591,1.146-0.865,1.988-0.49c0.707,0.313,1.047,1.588,0.44,2.449
	c-2.151,3.066-1.089,2.68,1.541,2.539c0.802-0.043,2.052,0.497,2.06,1.541c0.012,1.354-1.176,1.712-2.403,1.585
	c-1.802-0.188-2.927-0.569-1.438,2.252c0.418,0.796,0.697,2.095-0.429,2.58c-1.259,0.544-2.176-0.704-2.506-1.733
	c-0.485-1.514-1.169-1.353-1.866-0.209c-0.718,1.178-1.79,2.941-3.271,1.713C68.689,75.154,71.859,73.43,71.134,72.202z"/>
</svg>
